<?xml version="1.0" standalone="no"?>
<!DOCTYPE svg PUBLIC "-//W3C//DTD SVG 1.1//EN" "http://www.w3.org/Graphics/SVG/1.1/DTD/svg11.dtd" >
<svg xmlns="http://www.w3.org/2000/svg" xmlns:xlink="http://www.w3.org/1999/xlink" version="1.1">
<metadata>
Created by FontForge 20170731 at Tue Aug 28 09:31:13 2018
 By Aleksey,,,
Copyright (c) 2018 by Creativetacos. All rights reserved.
</metadata>
<defs>
<font id="Maleah-Bold" horiz-adv-x="340" >
  <font-face 
    font-family="Maleah"
    font-weight="700"
    font-stretch="normal"
    units-per-em="1024"
    panose-1="0 0 0 0 0 0 0 0 0 0"
    ascent="819"
    descent="-205"
    x-height="450"
    cap-height="660"
    bbox="-86 -260 950 925"
    underline-thickness="50"
    underline-position="-200"
    unicode-range="U+000D-F078"
  />
<missing-glyph horiz-adv-x="100" 
 />
    <glyph glyph-name=".notdef" horiz-adv-x="100" 
 />
    <glyph glyph-name=".null" horiz-adv-x="0" 
 />
    <glyph glyph-name=".null" horiz-adv-x="0" 
 />
    <glyph glyph-name="nonmarkingreturn" unicode="&#xd;" horiz-adv-x="256" 
 />
    <glyph glyph-name="space" unicode=" " horiz-adv-x="248" 
 />
    <glyph glyph-name="exclam" unicode="!" horiz-adv-x="283" 
d="M80 660h138l-55 -430h-28zM149 -10q-36 0 -58 22t-22 58t22 58t58 22t58 -22t22 -58t-22 -58t-58 -22z" />
    <glyph glyph-name="quotedbl" unicode="&#x22;" horiz-adv-x="528" 
d="M448 740l-50 -250h-29l-50 250h129zM80 740h129l-50 -250h-29z" />
    <glyph glyph-name="numbersign" unicode="#" horiz-adv-x="498" 
d="M105 0h-72l56 191h-89v68h108l36 123h-86v68h106l61 210h72l-61 -210h96l61 210h72l-61 -210h94v-68h-114l-36 -123h92v-68h-111l-56 -191h-72l56 191h-96zM180 259h96l36 123h-96z" />
    <glyph glyph-name="dollar" unicode="$" horiz-adv-x="508" 
d="M342 370q59 -37 88.5 -85t29.5 -99q0 -63 -31.5 -109t-86.5 -69v-88h-58v73q-18 -3 -38 -3v-70h-58v75q-65 12 -102.5 50t-37.5 95q0 14 11 22.5t28 8.5h60l2 -2q2 -2 3 -2v-27q0 -46 36 -68v224q-69 34 -103 78.5t-34 110.5t37 111.5t100 63.5v81h58v-71q5 1 9.5 1h9.5
h9.5t9.5 -1v70l58 -1v-80q48 -14 75.5 -44.5t27.5 -73.5q0 -14 -13 -22t-30 -8h-25v10.5t-0.5 24.5t-3.5 27t-10 17q-4 3 -13 5l-8 2v-227zM246 57q20 0 38 5v177q-8 7 -17.5 13t-20.5 12v-207zM246 421q15 -9 38 -21v197q-10 2 -19 2h-19v-178zM188 565q-10 -17 -9 -40
t9 -41v81zM343 114q10 29 -1 56z" />
    <glyph glyph-name="ampersand" unicode="&#x26;" horiz-adv-x="633" 
d="M153 345q-36 38 -56.5 76.5t-20.5 85.5q0 36 13.5 66t38.5 51.5t60 33t78 11.5q75 0 120 -34.5t45 -91.5q0 -37 -36.5 -77t-99.5 -75l163 -157q24 48 48.5 107t51.5 128h72q-32 -82 -61.5 -152.5t-61.5 -127.5l197 -191h-177l-94 87q-44 -47 -98 -72t-126 -25
q-43 0 -78 13t-60 36.5t-38.5 57t-13.5 74.5q0 26 5.5 49t20 45t40.5 42.5t68 39.5zM151 205q0 -60 35.5 -97t94.5 -37t108 55l-182 167q-5 5 -9 8.5t-9 7.5q-23 -20 -30.5 -46t-7.5 -58zM255 611q-24 0 -39 -22t-15 -58q0 -30 14.5 -53t39.5 -48q25 23 38.5 50t13.5 56
q0 34 -14.5 54.5t-37.5 20.5z" />
    <glyph glyph-name="quotesingle" unicode="'" horiz-adv-x="289" 
d="M209 740l-50 -250h-29l-50 250h129z" />
    <glyph glyph-name="parenleft" unicode="(" horiz-adv-x="303" 
d="M53 295q0 74 15 137t42.5 117t66 101t85.5 90h36q-33 -31 -60.5 -70.5t-47 -92.5t-30.5 -122.5t-11 -159.5t11 -159.5t30.5 -122.5t47 -92.5t60.5 -70.5h-36q-47 43 -85.5 90t-66 101t-42.5 117t-15 137z" />
    <glyph glyph-name="parenright" unicode=")" horiz-adv-x="303" 
d="M55 740q47 -43 85.5 -90t66 -101t42.5 -117t15 -137t-15 -137t-42.5 -117t-66 -101t-85.5 -90h-36q33 31 60.5 70.5t47 92.5t30.5 122.5t11 159.5t-11 159.5t-30.5 122.5t-47 92.5t-60.5 70.5h36z" />
    <glyph glyph-name="plus" unicode="+" horiz-adv-x="510" 
d="M40 236v72h178v174h74v-174h178v-72h-178v-184h-74v184h-178z" />
    <glyph glyph-name="comma" unicode="," horiz-adv-x="269" 
d="M44 35l37 62q17 27 31 27q6 0 13 -3t18 -8q35 -16 55.5 -55t20.5 -88q0 -27 -11.5 -53t-32.5 -49.5t-50 -43.5t-65 -34v29q39 15 63 40t24 51q0 29 -15.5 53.5t-41.5 36.5l-42 22z" />
    <glyph glyph-name="hyphen" unicode="-" horiz-adv-x="375" 
d="M50 302h275v-100h-275v100z" />
    <glyph glyph-name="period" unicode="." horiz-adv-x="290" 
d="M65 70q0 36 22 58t58 22t58 -22t22 -58t-22 -58t-58 -22t-58 22t-22 58z" />
    <glyph glyph-name="slash" unicode="/" horiz-adv-x="272" 
d="M200 750h72l-200 -870h-72z" />
    <glyph glyph-name="zero" unicode="0" horiz-adv-x="536" 
d="M268 -10q-53 0 -96.5 24.5t-74 68.5t-47.5 106t-17 138q0 77 17 140.5t47.5 108.5t74 69.5t96.5 24.5t96.5 -23.5t74 -67t47.5 -104.5t17 -136q0 -78 -17 -142.5t-47.5 -110.5t-74 -71t-96.5 -25zM170 371q0 -70 8.5 -127.5t24.5 -98t38.5 -63t49.5 -22.5q19 0 34.5 16.5
t26.5 47t17 73.5t6 95q0 70 -9.5 127t-27 97.5t-41.5 63t-54 22.5q-16 0 -29.5 -16.5t-23.5 -47t-15 -73t-5 -94.5z" />
    <glyph glyph-name="one" unicode="1" horiz-adv-x="458" 
d="M70 468v50l267 142h29v-610l2 -32v-18h-126v18l2 32v483z" />
    <glyph glyph-name="two" unicode="2" horiz-adv-x="480" 
d="M41 497q0 39 17 71t48 54.5t75 35t97 12.5q41 0 74.5 -13t57 -37t36.5 -58t13 -75q0 -39 -13.5 -75.5t-42.5 -78.5t-74 -93.5t-109 -121.5h192q12 1 24 1.5t26 0.5q-2 -14 -3 -30.5t-3 -30.5h1v-59h-407v36q73 80 124 134.5t83.5 101.5t47 95.5t14.5 116.5q0 54 -23.5 86
t-61.5 32q-14 0 -28 -6.5t-34 -19t-51 -32.5t-80 -47z" />
    <glyph glyph-name="three" unicode="3" horiz-adv-x="509" 
d="M53 524q0 33 15.5 60t44 46.5t68 30t88.5 10.5q85 0 135.5 -42.5t50.5 -113.5q0 -53 -34 -92t-103 -60q168 -35 168 -188q0 -42 -17 -76t-48.5 -58t-76 -37.5t-98.5 -13.5q-48 0 -87.5 9.5t-67.5 26.5t-43.5 41t-15.5 53q0 11 8 20.5t18 15.5q11 8 25 14h68l11 -11v-38
q0 -29 23 -47t61 -18q46 0 74 33t28 87q0 133 -166 133h-15.5t-15.5 -1v63q8 1 16 1.5t16 0.5q66 7 99.5 41.5t33.5 88.5q0 47 -21 75t-56 28q-26 0 -42 -18t-16 -48v-55l-11 -11h-60q-16 6 -28 14q-12 7 -20.5 16t-8.5 20z" />
    <glyph glyph-name="four" unicode="4" horiz-adv-x="501" 
d="M8 215q61 82 123 162t125 161l94 122h29l-1 -122v-256h110v-96h-109v-136l2 -32v-18h-127v18l2 32v136h-248v29zM256 282v156l-110 -156h110z" />
    <glyph glyph-name="five" unicode="5" horiz-adv-x="504" 
d="M192 -10q-47 0 -83 11.5t-50 30.5q-11 13 -11 28q0 17 7 23.5t18 14.5q10 11 20 19q9 8 17 13.5t14 5.5h15q14 -32 45.5 -54t66.5 -22q48 0 76.5 33t28.5 87q0 35 -13 64t-37 49.5t-57.5 32t-74.5 11.5q-25 0 -49 -2.5t-39 -7.5v333h323v-111h-254v-100q6 1 16.5 1.5
t22.5 0.5q60 0 108.5 -15.5t83.5 -43t54 -66.5t19 -87q0 -56 -19 -102t-54.5 -78.5t-84.5 -50.5t-109 -18z" />
    <glyph glyph-name="six" unicode="6" horiz-adv-x="512" 
d="M38 231q0 75 28.5 144t80 127t124.5 101t161 67v-44q-49 -13 -90 -39.5t-73.5 -64.5t-54.5 -86t-32 -102q26 26 61 40t76 14q37 0 67 -13.5t51.5 -37.5t33 -58t11.5 -75q0 -48 -16 -87.5t-44.5 -67.5t-69 -43.5t-89.5 -15.5q-51 0 -92.5 17.5t-71 49t-45.5 76t-16 98.5z
M263 290q-35 0 -58.5 -15t-29.5 -41q2 -81 26 -130t62 -49q39 0 63 32t24 85q0 54 -24 86t-63 32z" />
    <glyph glyph-name="seven" unicode="7" horiz-adv-x="500" 
d="M50 660l410 -1v-29q-48 -89 -88 -178.5t-68 -172.5t-43.5 -155t-15.5 -125h-161q0 11 19 55t54.5 116t85.5 168t111 211h-304v111z" />
    <glyph glyph-name="eight" unicode="8" horiz-adv-x="502" 
d="M41 142q0 63 28 109.5t78 69.5q-55 39 -79 84t-24 93q0 39 15 71t42 54.5t65.5 35t85.5 12.5q45 0 82.5 -12t64 -34t41 -53t14.5 -69q0 -51 -28 -88t-78 -57h1q57 -39 85.5 -86.5t28.5 -97.5q0 -41 -15 -75t-43 -58t-66.5 -37.5t-86.5 -13.5t-86.5 11t-66.5 31t-43 48
t-15 62zM172 177q0 -57 24.5 -91.5t64.5 -34.5q38 0 60.5 22t22.5 58q0 40 -29.5 78.5t-88.5 65.5l-18 9q-36 -39 -36 -107zM172 541q0 -43 25 -80t84 -65l6 -3q42 36 42 100q0 51 -24.5 81t-66.5 30q-30 0 -48 -17t-18 -46z" />
    <glyph glyph-name="nine" unicode="9" horiz-adv-x="509" 
d="M199 269q-38 0 -69 14t-53.5 39.5t-34.5 62t-12 80.5q0 51 16 89t44.5 64t69 39t89.5 13q51 0 92.5 -17.5t71 -49t45.5 -76t16 -98.5q0 -127 -28.5 -211.5t-80 -135t-124 -71.5t-161.5 -21l-1 43q52 0 96 16t77 52t54 92.5t28 137.5q-26 -29 -61 -45.5t-74 -16.5z
M166 465q0 -45 24 -72.5t63 -27.5q29 0 52 16.5t31 43.5q-2 81 -26 130t-62 49q-37 0 -59.5 -35t-22.5 -104z" />
    <glyph glyph-name="colon" unicode=":" horiz-adv-x="290" 
d="M65 70q0 36 22 58t58 22t58 -22t22 -58t-22 -58t-58 -22t-58 22t-22 58zM145 290q-36 0 -58 22t-22 58t22 58t58 22t58 -22t22 -58t-22 -58t-58 -22z" />
    <glyph glyph-name="semicolon" unicode=";" horiz-adv-x="269" 
d="M81 97q17 27 31 27q6 0 13 -3t18 -8q35 -16 55.5 -55t20.5 -88q0 -27 -11.5 -53t-32.5 -49.5t-50 -43.5t-65 -34v29q39 15 63 40t24 51q0 29 -15.5 53.5t-41.5 36.5l-42 22l-4 13zM133 290q-36 0 -58 22t-22 58t22 58t58 22t58 -22t22 -58t-22 -58t-58 -22z" />
    <glyph glyph-name="equal" unicode="=" horiz-adv-x="500" 
d="M460 195v-72h-420v72h420zM40 349v72h420v-72h-420z" />
    <glyph glyph-name="question" unicode="?" horiz-adv-x="488" 
d="M40 507q0 37 15.5 67t43 51.5t66.5 33t87 11.5q41 0 74.5 -13.5t57 -37.5t36.5 -58t13 -76q0 -30 -13 -62t-37 -63.5t-58 -61t-75 -54.5q-1 -6 -3 -10q0 -2 -1 -4h-29q-10 23 -18 45q-8 20 -13.5 38.5t-5.5 31.5q55 32 88 70t33 70q0 55 -26 88t-68 33q-19 0 -30 -23.5
t-11 -62.5v-56q-2 0 -7 -7q-2 -3 -4 -7h-60q-25 0 -40 15.5t-15 41.5zM152 75q0 36 22 58t58 22t58 -22t22 -58t-22 -58t-58 -22t-58 22t-22 58z" />
    <glyph glyph-name="A" unicode="A" horiz-adv-x="671" 
d="M494 -2q0 2 -1.5 9.5t-2.5 9.5q0 1 -2 6t-4 11q-3 7 -6 15l-54 137h-228q-16 -44 -28 -78t-21 -58l-11 -32q-3 -11 -3 -13.5v-4.5h-101q0 2 1.5 7.5t2.5 9.5l15 32q26 65 82 203t134 332q8 20 16 39t16 39h65l14 -35q51 -126 97 -238q27 -67 44.5 -111t35.5 -87.5
t34 -82.5t27 -66l13 -29q2 -5 3.5 -10.5t0.5 -4.5h-139zM311 477q-23 -59 -44 -111.5t-39 -100.5h166z" />
    <glyph glyph-name="B" unicode="B" horiz-adv-x="589" 
d="M64 1v19l3 36v550l-3 36v19h206q106 0 159 -42.5t53 -113.5q0 -45 -27 -81t-76 -60q80 -20 120 -62t40 -100q0 -45 -19.5 -82.5t-55.5 -63.5t-86 -40.5t-111 -14.5h-203zM196 81h70q62 0 99.5 30t37.5 80q0 51 -32.5 81t-97.5 30h-77v-221zM196 382q68 1 109 25t41 63
q0 51 -27.5 81.5t-81.5 30.5h-41v-200z" />
    <glyph glyph-name="C" unicode="C" horiz-adv-x="721" 
d="M403 -10q-75 0 -136.5 23t-105.5 64.5t-68 100t-24 129.5q0 82 25 149t70 114.5t108.5 73.5t141.5 26q72 0 128 -12t77 -32l3 -86q-5 0 -8.5 -0.5t-7.5 -0.5q-12 2 -27 3t-26 5q-25 23 -64.5 37t-75.5 14q-48 0 -86.5 -18t-66.5 -50t-43 -77.5t-15 -101.5
q0 -65 14.5 -118t40.5 -91t63 -59t82 -21q43 0 90.5 13.5t81.5 39.5q29 7 61 7l-5 -85q-14 -10 -37 -19t-53 -15t-65 -9.5t-72 -3.5z" />
    <glyph glyph-name="D" unicode="D" horiz-adv-x="708" 
d="M67 55v550l-3 36v19h216q81 0 147 -19t113 -56t72.5 -92.5t25.5 -129.5q0 -87 -24 -153.5t-68 -112.5t-105.5 -70t-136.5 -27h-240v19zM197 79l104 -1q91 3 146.5 63t55.5 172q0 66 -18.5 116.5t-53 84t-82 50.5t-106.5 17h-46v-502z" />
    <glyph glyph-name="E" unicode="E" horiz-adv-x="581" 
d="M68 55v550l-3 36v19h422v-83h-17l-58 4h-214v-201h139q32 3 64 3v-86h-23q-28 2 -58 2.5t-61 0.5h-62v-221h239l58 5h17l1 -84h-447v19z" />
    <glyph glyph-name="F" unicode="F" horiz-adv-x="546" 
d="M68 55v550l-3 36v19h412v-83h-17l-58 4h-204v-201h139q32 3 64 3v-86h-22q-28 2 -58 2.5t-61 0.5h-62v-245l3 -36v-19h-136v19z" />
    <glyph glyph-name="G" unicode="G" horiz-adv-x="711" 
d="M69 307q0 82 25.5 149t72 114.5t112 73.5t145.5 26q74 0 133 -12t82 -32l3 -86q-5 0 -8.5 -0.5t-7.5 -0.5q-12 2 -27.5 3.5t-26.5 5.5q-29 24 -69.5 37.5t-78.5 13.5q-50 0 -90.5 -18t-69.5 -50t-45 -77.5t-16 -101.5q0 -62 17.5 -113t49 -87t76 -56t98.5 -20q47 0 85 16
v143l-3 36v19h135v-19l-3 -36v-131q-21 -25 -50 -46t-62.5 -36t-69.5 -23.5t-72 -8.5q-75 0 -137 23t-106 64.5t-68 100t-24 129.5z" />
    <glyph glyph-name="H" unicode="H" horiz-adv-x="664" 
d="M468 380v225l-3 36v19h135v-19l-3 -36v-550l3 -36v-19h-135v19l3 36v245h-271v-245l3 -36v-19h-136v19l3 36v550l-3 36v19h136v-19l-3 -36v-225h271z" />
    <glyph glyph-name="I" unicode="I" horiz-adv-x="274" 
d="M205 660v-19l-3 -36v-550l3 -36v-19h-135v19l3 36v550l-3 36v19h135z" />
    <glyph glyph-name="J" unicode="J" horiz-adv-x="274" 
d="M-74 -137q0 2 2 15t5 27q3 18 7 39h6q11 -3 24 -5.5t25 -4.5q13 -1 27 -3q23 0 37 32.5t14 86.5v555l-3 36v19h135v-19l-3 -36v-377q0 -90 -16.5 -164t-46.5 -126.5t-72.5 -81.5t-93.5 -29q-21 0 -34 9.5t-13 26.5z" />
    <glyph glyph-name="K" unicode="K" horiz-adv-x="682" 
d="M200 340l76 87q41 46 81.5 92t80.5 92l27 31q1 2 6 11q3 3 6 8h139l-4 -5q-6 -6 -11 -12q-71 -68 -139 -137.5t-137 -138.5l287 -328l36 -38h-168zM68 58v550l-3 36v19h135v-19l-3 -36v-550l3 -36v-19h-135v19z" />
    <glyph glyph-name="L" unicode="L" horiz-adv-x="565" 
d="M67 55v550l-3 36v19h136v-19l-3 -36v-526h218l62 6h18v-85h-431v19z" />
    <glyph glyph-name="M" unicode="M" horiz-adv-x="828" 
d="M222 658l198 -486l197 486h126v-19l-1 -35l21 -551l4 -36v-19h-128v19l1 35l-16 419l-201 -477h-65l-198 484l-10 -427l2 -32v-19h-91v19l4 35l19 551l-2 53h140z" />
    <glyph glyph-name="N" unicode="N" horiz-adv-x="656" 
d="M164 660l329 -401v346l-4 36v19h107v-19l-3 -36v-610h-50q-95 115 -189 228.5t-189 228.5v-397l4 -36v-19h-108v19l3 36v550l-4 55h104z" />
    <glyph glyph-name="O" unicode="O" horiz-adv-x="817" 
d="M409 -10q-76 0 -138.5 24t-107 68t-69 105.5t-24.5 136.5q0 78 24.5 142t69 109t107 70t138.5 25t138.5 -24.5t106.5 -69.5t68.5 -108t24.5 -140q0 -76 -24.5 -138.5t-68.5 -106.5t-106.5 -68.5t-138.5 -24.5zM208 375q0 -70 16.5 -128t46.5 -99t72.5 -63.5t94.5 -22.5
q39 0 70.5 15.5t54 43.5t35 68t12.5 88q0 73 -16.5 132.5t-46 102t-71.5 65.5t-93 23q-39 0 -71.5 -16t-55.5 -45.5t-35.5 -71t-12.5 -92.5z" />
    <glyph glyph-name="P" unicode="P" horiz-adv-x="589" 
d="M64 19l3 36v550l-3 36v19h221q53 0 96 -13.5t73.5 -38t47.5 -59.5t17 -77q0 -44 -18.5 -80t-52.5 -61.5t-82 -39.5t-106 -14h-63v-222l3 -36v-19h-136v19zM196 357h37.5h29.5q14 -1 25 -1q42 0 66.5 28.5t24.5 76.5q0 54 -35 87t-92 33h-55v-224h-1z" />
    <glyph glyph-name="Q" unicode="Q" horiz-adv-x="817" 
d="M70 324q0 78 24.5 142t69 109t107 70t138.5 25t138.5 -24.5t106.5 -69.5t68.5 -108t24.5 -140q0 -114 -52 -195t-143 -117q26 -12 54 -33l56 -42t53.5 -36t47.5 -15q27 0 49 3.5t33 9.5v-22l-1 1q-31 -17 -77.5 -28t-93.5 -11q-24 0 -52.5 15.5t-60 38.5t-63.5 48.5
t-64 45.5q-7 0 -13 -0.5t-13 -0.5q-76 0 -138 24.5t-106.5 68.5t-68.5 105.5t-24 135.5zM207 376q0 -70 16.5 -128t46.5 -99t72.5 -63.5t94.5 -22.5q39 0 70.5 15.5t54 43.5t35 68t12.5 88q0 73 -16.5 132.5t-46 102t-71.5 65.5t-93 23q-39 0 -71.5 -16t-55.5 -45.5
t-35.5 -71t-12.5 -92.5z" />
    <glyph glyph-name="R" unicode="R" horiz-adv-x="582" 
d="M195 53l3 -36v-19h-136v19l3 36v550l-3 36v19h212q50 0 90.5 -13t69.5 -36.5t45 -56.5t16 -73q0 -30 -11 -55.5t-30 -47t-43.5 -38.5t-51.5 -28q29 -37 67 -88t72 -98t58 -82.5t24 -42.5l-160 -1q0 4 -9 18.5t-23.5 35.5t-33 46.5t-38.5 52.5q-46 61 -104 137h-17v-235z
M211 368q23 0 48 7t46 20.5t35 32t14 40.5q0 51 -31 81t-82 30h-46v-211h16zM567 22q-1 1 -1.5 2t-1.5 2q1 -1 1.5 -2t1.5 -2z" />
    <glyph glyph-name="S" unicode="S" horiz-adv-x="546" 
d="M62 158q5 0 10 0.5t10 0.5q16 -13 29 -23.5t30 -23.5q32 -25 70.5 -39.5t70.5 -14.5q38 0 61.5 27.5t23.5 73.5q0 35 -33.5 67t-99.5 66q-75 38 -113 84t-38 108q0 42 15 76.5t42 58.5t65 37.5t84 13.5q60 0 105.5 -11t62.5 -30l6 -104q-2 0 -5 -0.5t-5 -0.5h-11l-9 4.5
l-9 4.5l-25 14q-22 24 -55.5 39t-67.5 15q-29 0 -47 -19t-18 -51q0 -40 29 -71.5t86 -60.5q82 -42 123.5 -91.5t41.5 -115.5q0 -45 -15 -82.5t-42.5 -64t-66 -41t-85.5 -14.5q-74 0 -132.5 11.5t-81.5 31.5z" />
    <glyph glyph-name="T" unicode="T" horiz-adv-x="684" 
d="M45 660h594v-84h-18l-62 5h-152v-526l4 -36v-19h-138v19l4 36v526h-152l-62 -5h-18v84z" />
    <glyph glyph-name="U" unicode="U" horiz-adv-x="653" 
d="M55 660h135v-19l-3 -36v-348q0 -41 12.5 -75t35.5 -58t55 -37.5t71 -13.5q57 0 91 35.5t34 94.5v402l-4 36v19h107v-19l-3 -36v-371q0 -55 -19 -100t-53.5 -77t-83.5 -49.5t-108 -17.5t-108 17.5t-83.5 49.5t-53.5 77t-19 100v371l-3 36v19z" />
    <glyph glyph-name="V" unicode="V" horiz-adv-x="661" 
d="M175 660q0 -1 0.5 -9.5t1.5 -10.5l8 -27l146 -441l177 438l19 49h101l-280 -665h-64q-56 157 -114 311t-116 310l-17 45h138z" />
    <glyph glyph-name="W" unicode="W" horiz-adv-x="879" 
d="M194 -5q-5 21 -20.5 75.5t-35.5 125.5t-41.5 148.5t-40 144.5t-30 114.5t-11.5 56.5h138l-1 -18l95 -437q45 116 89 231t90 230h61q35 -116 70.5 -230t70.5 -229l132 434q0 3 1 10t1 9h101q-1 -3 -1 -5q-2 -7 -2 -9l-10 -26l-204 -625h-55q-38 114 -76.5 226t-76.5 225
q-47 -113 -94 -225t-93 -226h-57z" />
    <glyph glyph-name="X" unicode="X" horiz-adv-x="687" 
d="M621 45q5 -6 10 -12.5t10 -12.5l2 -4q4 -6 7 -12q2 -2 3 -4h-170l-5 10q-6 10 -10.5 17t-12.5 19l-149 214l-179 -241q-2 -2 -6.5 -10.5t-2.5 -8.5h-105q1 2 3 5q4 6 9 13q60 76 117.5 153.5t116.5 154.5l-200 287l-22 29q-4 7 -8 13q-2 3 -3 5h155l5 -10l30 -45
q35 -50 71 -99.5t71 -99.5l199 254h97l-3 -4l-8 -12q-60 -75 -118 -150.5t-118 -150.5z" />
    <glyph glyph-name="Y" unicode="Y" horiz-adv-x="672" 
d="M70 610q-3 3 -8.5 11.5t-12.5 17.5q-7 10 -15 22h139l5 -10q5 -9 6 -10.5t2.5 -4t6 -8.5t17.5 -23q39 -53 78.5 -105.5t78.5 -106.5l137 212l25 35q2 2 5 10.5t3 9.5h100l-26 -40q-51 -76 -100 -152t-99 -152v-261l3 -36v-19h-135v19l3 36v256z" />
    <glyph glyph-name="Z" unicode="Z" horiz-adv-x="646" 
d="M84 36q79 137 156.5 272.5t155.5 272.5h-221l-62 -5h-18v84h446v-53q-76 -133 -151 -264t-151 -264h238l62 5h18v-84h-473v36z" />
    <glyph glyph-name="bracketleft" unicode="[" horiz-adv-x="277" 
d="M272 740v-33h-116v-824h116v-33h-205v890h205z" />
    <glyph glyph-name="backslash" unicode="\" horiz-adv-x="294" 
d="M72 750l222 -870h-72l-222 870h72z" />
    <glyph glyph-name="bracketright" unicode="]" horiz-adv-x="272" 
d="M207 740v-890h-202v33h113v824h-113v33h202z" />
    <glyph glyph-name="asciicircum" unicode="^" 
d="M155 705h30l143 -175h-17l-141 80l-136 -80h-17z" />
    <glyph glyph-name="underscore" unicode="_" horiz-adv-x="500" 
d="M25 -157v71h450v-71h-450z" />
    <glyph glyph-name="grave" unicode="`" 
d="M90 707l87 -177h-17l-144 89q-9 6 -16.5 20t-13.5 30q-6 17 -11 38h115z" />
    <glyph glyph-name="a" unicode="a" horiz-adv-x="497" 
d="M79 292q-14 -1 -22 10t-8 30q0 28 14.5 51.5t39.5 41t59.5 27t74.5 9.5q76 0 114.5 -29.5t38.5 -77.5v-71q-1 -37 -1 -84.5v-107.5q0 -8 19 -13.5t50 -5.5q26 0 28 5l5 -8q-14 -35 -44.5 -56.5t-66.5 -21.5q-34 0 -58.5 15.5t-36.5 42.5q-26 -29 -63 -44t-78 -15
q-48 0 -76.5 28t-28.5 75q0 49 59 93t177 73v63q0 32 -18.5 51.5t-55.5 19.5q-14 0 -23 -15.5t-9 -38.5l-1 -42l-5 -5h-84zM150 123q0 -21 16.5 -33.5t42.5 -12.5q40 0 65 12v120q-62 -17 -93 -39.5t-31 -46.5z" />
    <glyph glyph-name="b" unicode="b" horiz-adv-x="512" 
d="M39 712h9l85 38h23v-332q27 20 63 31t74 11t69 -14.5t53.5 -41.5t34.5 -65t12 -84q0 -60 -16.5 -108.5t-46 -83.5t-71.5 -54t-93 -19q-49 0 -87 7.5t-58 21.5q-8 -6 -15 -11.5t-12 -9.5q-7 -4 -12 -8h-9l-1 634q0 8 -1 19q0 9 -0.5 21t-0.5 27v21zM211 363
q-22 0 -37 -2.5t-18 -7.5v-238q14 -26 46 -41t70 -15q33 0 53.5 45t20.5 120q0 63 -37 101t-98 38z" />
    <glyph glyph-name="c" unicode="c" horiz-adv-x="477" 
d="M261 -10q-48 0 -86.5 15t-66.5 42.5t-43 66.5t-15 86q0 59 16.5 106.5t47 82t73 53t94.5 18.5q17 0 42.5 -3.5t49.5 -12.5t41.5 -24t17.5 -39q0 -15 -3.5 -27.5t-8.5 -17.5l-66 -34h-7l-34 49q-13 19 -32.5 30.5t-39.5 11.5q-35 0 -56 -35t-21 -93q0 -76 43 -122t115 -46
q24 0 53.5 11.5t53.5 30.5h4v-13q-24 -62 -71 -99t-101 -37z" />
    <glyph glyph-name="d" unicode="d" horiz-adv-x="515" 
d="M211 -10q-37 0 -67 14.5t-51.5 40.5t-33 63.5t-11.5 82.5q0 60 17 110t48.5 85t75.5 54.5t98 19.5q17 0 32.5 -1t30.5 -3v190q0 7 -1 16q0 9 -0.5 19.5t-0.5 23.5v16l2 1h1l91 30h23v-702l3 -32v-18h-104q-3 8 -5 17q-3 8 -5 16t-3 16q-25 -27 -62 -43t-78 -16zM268 392
q-48 0 -77 -44.5t-29 -118.5q0 -64 35.5 -102.5t94.5 -38.5q36 0 58 14v236q-19 12 -34 22t-26 17q-12 9 -22 15z" />
    <glyph glyph-name="e" unicode="e" horiz-adv-x="483" 
d="M260 -10q-48 0 -86.5 15t-66.5 42.5t-43 66.5t-15 86q0 59 15 106.5t43 82t66.5 53t86.5 18.5q39 0 70.5 -15.5t54 -43t35 -67t12.5 -87.5l-51 -7h-217q8 -66 49.5 -104.5t107.5 -38.5q24 0 53.5 11.5t53.5 30.5h4v-13q-24 -62 -71 -99t-101 -37zM323 307q-9 42 -30 65
t-50 23t-49 -23.5t-27 -64.5h156z" />
    <glyph glyph-name="f" unicode="f" horiz-adv-x="393" 
d="M110 49v332h-71v68h71v40q0 47 20.5 93.5t53.5 83.5t74 60t82 23q4 0 10 -1.5t12 -3.5t13 -5q20 -9 24.5 -18.5t-0.5 -26.5l-33 -84h-7q-4 1 -8 3q-4 1 -9 3t-10 5q-10 5 -27.5 7.5t-37.5 2.5q-19 0 -30 -6t-11 -14v-161h132v-68h-132v-332l2 -32v-18l-120 -1v18z" />
    <glyph glyph-name="g" unicode="g" horiz-adv-x="554" 
d="M344 76q69 0 98.5 -34t29.5 -90q0 -43 -16.5 -78.5t-47 -60.5t-73.5 -38.5t-95 -13.5q-85 0 -136.5 31.5t-51.5 83.5q0 12 6 27.5t16.5 30.5t26 27.5t34.5 20.5q-34 10 -53.5 33t-19.5 55q0 28 23 53.5t63 42.5q-33 21 -51.5 55t-18.5 79q0 72 46 116t137 44
q65 0 112 -28q32 5 65 9t66 9v-77l-78 5q18 -33 18 -75q0 -75 -46.5 -120.5t-137.5 -45.5q-42 0 -77 12q-9 -2 -14.5 -11t-5.5 -21q0 -19 15 -30t40 -11h126zM183 -24q-12 0 -19.5 -25t-7.5 -59q0 -41 27.5 -65.5t72.5 -24.5q51 0 81.5 32.5t30.5 86.5q0 25 -18.5 40
t-62.5 15h-104zM197 305q0 -50 22 -80t59 -30q24 0 36.5 28.5t12.5 75.5q0 48 -20.5 76.5t-54.5 28.5q-27 0 -41 -27t-14 -72z" />
    <glyph glyph-name="h" unicode="h" horiz-adv-x="473" 
d="M51 18l2 32v574q0 8 -1 19q0 9 -0.5 21t-0.5 27v21h9l85 38h23v-364q33 34 67 54t69 20q57 0 92 -32t35 -85v-293l2 -32v-18h-118v18l2 32v227q0 37 -20.5 59.5t-54.5 22.5q-26 0 -44 -5t-30 -13v-291l2 -32v-18h-119v18z" />
    <glyph glyph-name="i" unicode="i" horiz-adv-x="226" 
d="M54 422h9l85 38h23v-410l3 -32v-18h-120v18l2 32v284q0 8 -1 19q0 9 -0.5 21t-0.5 27v21zM107 610q-36 0 -58 22t-22 58t22 58t58 22t58 -22t22 -58t-22 -58t-58 -22z" />
    <glyph glyph-name="j" unicode="j" horiz-adv-x="226" 
d="M-7 -211q26 16 39.5 35.5t18.5 43.5t5 53v65v348q0 8 -1 19q0 9 -0.5 21t-0.5 27v21h9l85 38h23v-458q0 -29 -5 -55t-23 -54t-53.5 -59.5t-96.5 -69.5v25zM34 690q0 36 22 58t58 22t58 -22t22 -58t-22 -58t-58 -22t-58 22t-22 58z" />
    <glyph glyph-name="k" unicode="k" horiz-adv-x="501" 
d="M408 400q-37 -29 -73 -58.5t-73 -58.5l177 -242l19 -24q4 -7 9 -13q1 -3 3 -5h-146l-158 233v-183l3 -32v-18h-120v18l2 32v584q0 8 -1 19q0 9 -0.5 21t-0.5 27v21h9l85 38h23v-505l192 174q2 2 10 11.5t9 10.5h93z" />
    <glyph glyph-name="l" unicode="l" horiz-adv-x="207" 
d="M44 0v18l2 32v584q0 8 -1 19q0 9 -0.5 21t-0.5 27v21h9l85 38h23v-710l2 -32v-18h-119z" />
    <glyph glyph-name="m" unicode="m" horiz-adv-x="720" 
d="M560 -1v18l3 32v227q0 37 -19.5 59.5t-51.5 22.5q-26 0 -44 -6t-32 -17v-286l3 -32v-18h-121v18l3 32v227q0 37 -19 59.5t-51 22.5q-24 0 -41 -5t-29 -13v-291l2 -32v-18h-119v18l2 32v284q0 8 -1 19q0 9 -0.5 21t-0.5 27v17l88 42h23q0 -12 1 -25q0 -12 0.5 -25t0.5 -26
h2q34 35 67.5 55.5t66.5 20.5q46 0 77 -22.5t41 -60.5q37 38 73 61t71 23q56 0 89.5 -32t33.5 -85v-293l2 -32v-18z" />
    <glyph glyph-name="n" unicode="n" horiz-adv-x="473" 
d="M52 334q0 8 -1 19q0 9 -0.5 21t-0.5 27v17l88 42h23q0 -12 1 -25q0 -12 0.5 -25t0.5 -26h2q34 35 68.5 55.5t70.5 20.5q57 0 92 -32t35 -85v-293l2 -32v-18h-120v18l3 32v227q0 37 -20.5 59.5t-54.5 22.5q-26 0 -44 -5t-30 -13v-291l3 -32v-18h-120v18l2 32v284z" />
    <glyph glyph-name="o" unicode="o" horiz-adv-x="548" 
d="M274 -10q-50 0 -91.5 17t-71 47.5t-45.5 74t-16 96.5t14 96.5t42.5 74t70.5 47.5t97 17q50 0 91.5 -17t71 -47.5t45.5 -74t16 -96.5t-14 -96.5t-42.5 -74t-70 -47.5t-97.5 -17zM182 225q0 -79 30.5 -127t81.5 -48q36 0 54 48t18 127t-30.5 127t-81.5 48q-36 0 -54 -48
t-18 -127z" />
    <glyph glyph-name="p" unicode="p" horiz-adv-x="518" 
d="M50 -213l2 32v514q0 8 -1 19q0 9 -0.5 21t-0.5 27v21h8l80 38h23l2 -62v-1q34 29 74 46t74 17q35 0 64 -14.5t49.5 -41.5t32 -65t11.5 -85q0 -59 -17 -108t-48.5 -83.5t-75 -53.5t-97.5 -19q-18 0 -33.5 0.5t-29.5 1.5v-172l3 -32v-18h-120v18zM230 362q-18 0 -34.5 -3
t-28.5 -9v-250h1q23 -19 50.5 -30.5t50.5 -11.5q40 0 64 39t24 104q0 73 -35 117t-92 44z" />
    <glyph glyph-name="q" unicode="q" horiz-adv-x="526" 
d="M221 -10q-39 0 -70.5 14.5t-54 40.5t-34.5 63.5t-12 82.5q0 60 18 110t50.5 85t78.5 54.5t102 19.5q42 0 77.5 -5t58.5 -14l40 19h9v-640l2 -32v-18h-120v18l3 32v234q-38 -29 -78 -46.5t-70 -17.5zM281 391q-53 0 -85 -44.5t-32 -118.5q0 -64 38 -102.5t101 -38.5
q17 0 34.5 5t31.5 13v241q-29 21 -52.5 33t-35.5 12z" />
    <glyph glyph-name="r" unicode="r" horiz-adv-x="356" 
d="M50 0v18l2 32v284q0 8 -1 19q0 9 -0.5 21t-0.5 27v17l88 42h23q0 -13 1 -27q0 -13 0.5 -27t1.5 -28v-6h3q31 40 57.5 64t47.5 24q12 0 26.5 -2t27 -8t21.5 -16t9 -25q0 -7 -11 -33t-29 -63h-7q-29 17 -51 25.5t-57 8.5q-13 0 -34 -24v-273l3 -32v-18h-120z" />
    <glyph glyph-name="s" unicode="s" horiz-adv-x="443" 
d="M60 92h14q3 -2 6 -3.5t6 -3.5q12 -7 27.5 -14.5t32 -14t33 -10.5t30.5 -4q26 0 44 12t18 37q0 36 -23 57.5t-69 34.5q-52 14 -78 47.5t-26 96.5q0 60 38 96.5t101 36.5q39 0 78.5 -9t65.5 -24v-74q-29 11 -58.5 27.5t-61.5 21.5q0 1 -8 1.5t-9 0.5q-20 0 -32 -9.5
t-12 -24.5q0 -35 20.5 -56t60.5 -32q57 -16 86 -52t29 -102q0 -63 -42.5 -100.5t-113.5 -37.5q-44 0 -87 7.5t-70 20.5v74z" />
    <glyph glyph-name="t" unicode="t" horiz-adv-x="393" 
d="M104 450l106 123h9v-123h132v-68h-132v-238q0 -24 20 -39t53 -15q29 0 47 1.5t20 4.5l4 -14q-20 -42 -56 -67t-77 -25q-57 0 -91.5 35.5t-34.5 94.5v262h-86v9z" />
    <glyph glyph-name="u" unicode="u" horiz-adv-x="435" 
d="M142 450v-274q0 -37 20.5 -59t54.5 -22q23 0 42.5 3t32.5 9v293l-4 31v18h118v-400l3 -32v-18h-118v58q-36 -33 -72.5 -50t-67.5 -17q-56 0 -90 32t-34 85v293l-2 32v18h117z" />
    <glyph glyph-name="v" unicode="v" horiz-adv-x="435" 
d="M-13 433l-4 12q-1 3 -2 5h130q1 -5 2 -9q2 -8 2 -9l12 -25l108 -242l92 237l10 28v1q0 1 2 10q1 4 2 9h76q-2 -8 -4 -12.5t-3 -6.5q-51 -106 -99 -214t-98 -216h-30q-47 100 -91 199.5t-89 199.5q-5 8 -9 17.5t-7 15.5z" />
    <glyph glyph-name="w" unicode="w" horiz-adv-x="729" 
d="M169 0q-35 100 -69 200t-69 200q-5 13 -9 23t-6.5 17.5t-2.5 9.5h126v3q0 -3 1 -10t1 -9l11 -32q19 -60 39 -120l40 -120l128 278l4 12h24l147 -285l99 265q0 1 2 10t0 9h76q-1 -2 -1 -5q-3 -7 -5 -14l-18 -36l-173 -395h-29q-37 69 -71.5 139.5t-69.5 140.5l-139 -281
h-36z" />
    <glyph glyph-name="x" unicode="x" horiz-adv-x="499" 
d="M55 404l-17 23q-6 9 -11 17l-4 6h129q1 -2 4 -9t5 -9l24 -33q19 -26 38 -52.5t38 -52.5l97 136q2 2 6 10l5 10h74q-2 -2 -4 -6q-2 -3 -5 -7t-7 -9q-36 -42 -70 -84.5t-69 -84.5l151 -210l21 -27q5 -8 10 -15l3 -6h-138q-1 1 -4.5 8.5t-5.5 9.5l-22 31q-23 33 -45.5 66
t-45.5 66l-84 -132l-22 -31q-2 -2 -4.5 -9.5t-3.5 -9.5h-75l4 6l5 7.5t6 9.5q38 48 73 98t71 100z" />
    <glyph glyph-name="y" unicode="y" horiz-adv-x="432" 
d="M81 -120q30 0 49 15.5t33 53.5l26 62l-170 390l-14 29q-1 1 -3 10q-2 3 -3 8h129v1q1 -3 2.5 -10t1.5 -9l14 -32q25 -58 51.5 -119.5t52.5 -119.5l114 272q1 3 1.5 7t2.5 12h65q-1 -3 -1 -6q-3 -8 -5 -13l-15 -33l-195 -469q-35 -92 -71 -130.5t-86 -38.5
q-26 0 -37.5 9.5t-11.5 32.5v74l4 4h66z" />
    <glyph glyph-name="z" unicode="z" horiz-adv-x="453" 
d="M31 26q48 90 95.5 179t95.5 180h-137l-33 -4h-16q2 17 3 34.5t3 34.5h329v-32q-48 -88 -94.5 -176t-94.5 -177h146l33 4h17v-69h-347v26z" />
    <glyph glyph-name="bar" unicode="|" horiz-adv-x="236" 
d="M64 760h72v-1020h-72v1020z" />
    <glyph glyph-name="asciitilde" unicode="~" 
d="M16 225q20 60 40.5 97t56.5 37q17 0 36 -9.5t38.5 -21t38.5 -21t35 -9.5q18 0 27 14.5t17 37.5h19q-20 -61 -40.5 -98.5t-56.5 -37.5q-16 0 -35 9.5t-38.5 21t-38.5 21t-36 9.5q-19 0 -27.5 -13.5t-16.5 -36.5h-19z" />
    <glyph glyph-name="exclamdown" unicode="&#xa1;" horiz-adv-x="283" 
d="M135 220h28l55 -430h-138zM69 380q0 36 22 58t58 22t58 -22t22 -58t-22 -58t-58 -22t-58 22t-22 58z" />
    <glyph glyph-name="guillemotleft" unicode="&#xab;" horiz-adv-x="432" 
d="M396 425h16l-72 -177l72 -178h-16l-200 178zM13 248l200 177h16l-72 -177l72 -178h-16z" />
    <glyph glyph-name="acute" unicode="&#xb4;" 
d="M256 707h115q-5 -21 -11 -38t-13.5 -30.5t-16.5 -19.5l-144 -89h-17z" />
    <glyph glyph-name="periodcentered" unicode="&#xb7;" horiz-adv-x="290" 
d="M65 290q0 36 22 58t58 22t58 -22t22 -58t-22 -58t-58 -22t-58 22t-22 58z" />
    <glyph glyph-name="guillemotright" unicode="&#xbb;" horiz-adv-x="452" 
d="M227 425l205 -177l-205 -178h-16l77 178l-77 177h16zM20 425h16l205 -177l-205 -178h-16l77 178z" />
    <glyph glyph-name="questiondown" unicode="&#xbf;" horiz-adv-x="488" 
d="M55 -35q0 30 13 62t37 63.5t58 61t75 54.5q1 6 3 10q0 2 1 4h29q10 -23 19 -45q7 -20 12.5 -38.5t5.5 -31.5q-55 -32 -88 -70t-33 -70q0 -55 26 -88t68 -33q19 0 30 23.5t11 62.5v56q2 0 7 7q2 3 4 7h60q25 0 40 -15.5t15 -41.5q0 -37 -15.5 -67t-43 -51.5t-66.5 -33
t-87 -11.5q-41 0 -74.5 13.5t-57 37.5t-36.5 58t-13 76zM176 375q0 36 22 58t58 22t58 -22t22 -58t-22 -58t-58 -22t-58 22t-22 58z" />
    <glyph glyph-name="Agrave" unicode="&#xc0;" horiz-adv-x="671" 
d="M494 -2q0 2 -1.5 9.5t-2.5 9.5q0 1 -2 6t-4 11q-3 7 -6 15l-54 137h-228q-16 -44 -28 -78t-21 -58l-11 -32q-3 -11 -3 -13.5v-4.5h-101q0 2 1.5 7.5t2.5 9.5l15 32q26 65 82 203t134 332q8 20 16 39t16 39h65l14 -35q51 -126 97 -238q27 -67 44.5 -111t35.5 -87.5
t34 -82.5t27 -66l13 -29q2 -5 3.5 -10.5t0.5 -4.5h-139zM311 477q-23 -59 -44 -111.5t-39 -100.5h166zM250 864l87 -159h-17l-144 80q-9 5 -16.5 18t-13.5 26q-6 16 -11 35h115z" />
    <glyph glyph-name="Aacute" unicode="&#xc1;" horiz-adv-x="671" 
d="M494 -2q0 2 -1.5 9.5t-2.5 9.5q0 1 -2 6t-4 11q-3 7 -6 15l-54 137h-228q-16 -44 -28 -78t-21 -58l-11 -32q-3 -11 -3 -13.5v-4.5h-101q0 2 1.5 7.5t2.5 9.5l15 32q26 65 82 203t134 332q8 20 16 39t16 39h65l14 -35q51 -126 97 -238q27 -67 44.5 -111t35.5 -87.5
t34 -82.5t27 -66l13 -29q2 -5 3.5 -10.5t0.5 -4.5h-139zM311 477q-23 -59 -44 -111.5t-39 -100.5h166zM328 706l87 159h115q-5 -19 -11 -35q-6 -15 -13.5 -27.5t-16.5 -17.5l-144 -80h-17v1z" />
    <glyph glyph-name="Acircumflex" unicode="&#xc2;" horiz-adv-x="671" 
d="M494 -2q0 2 -1.5 9.5t-2.5 9.5q0 1 -2 6t-4 11q-3 7 -6 15l-54 137h-228q-16 -44 -28 -78t-21 -58l-11 -32q-3 -11 -3 -13.5v-4.5h-101q0 2 1.5 7.5t2.5 9.5l15 32q26 65 82 203t134 332q8 20 16 39t16 39h65l14 -35q51 -126 97 -238q27 -67 44.5 -111t35.5 -87.5
t34 -82.5t27 -66l13 -29q2 -5 3.5 -10.5t0.5 -4.5h-139zM311 477q-23 -59 -44 -111.5t-39 -100.5h166zM180 705l139 157h30l142 -157h-17l-141 72l-135 -72h-18zM492 706h1v-1z" />
    <glyph glyph-name="Atilde" unicode="&#xc3;" horiz-adv-x="671" 
d="M490 17q0 1 -2 6t-4 11q-3 7 -6 15l-54 137h-228q-16 -44 -28 -78t-21 -58l-11 -32q-3 -11 -3 -13.5v-4.5h-101q0 2 1.5 7.5t2.5 9.5l15 32q26 65 82 203t134 332q8 20 16 39t16 39h65l14 -35q51 -126 97 -238q27 -67 44.5 -111t35.5 -87.5t34 -82.5t27 -66l13 -29
q2 -5 3.5 -10.5t0.5 -4.5h-139q0 2 -1.5 9.5t-2.5 9.5zM186 728q20 54 40.5 87.5t55.5 33.5q17 0 36 -8.5t38.5 -19t38.5 -19t36 -8.5t26 13t17 34h19q-20 -56 -40.5 -89.5t-55.5 -33.5q-17 0 -36 8.5t-38.5 19t-38.5 19t-36 8.5q-18 0 -26.5 -12.5t-16.5 -32.5h-19z
M394 265l-83 212q-23 -59 -44 -111.5t-39 -100.5h166z" />
    <glyph glyph-name="Adieresis" unicode="&#xc4;" horiz-adv-x="671" 
d="M490 17q0 1 -2 6t-4 11q-3 7 -6 15l-54 137h-228q-16 -44 -28 -78t-21 -58l-11 -32q-3 -11 -3 -13.5v-4.5h-101q0 2 1.5 7.5t2.5 9.5l15 32q26 65 82 203t134 332q8 20 16 39t16 39h65l14 -35q51 -126 97 -238q27 -67 44.5 -111t35.5 -87.5t34 -82.5t27 -66l13 -29
q2 -5 3.5 -10.5t0.5 -4.5h-139q0 2 -1.5 9.5t-2.5 9.5zM155 807q0 32 20 52t52 20t52 -20t20 -52t-20 -52t-52 -20t-52 20t-20 52zM370 807q0 32 20 52t52 20t52 -20t20 -52t-20 -52t-52 -20t-52 20t-20 52zM311 477q-23 -59 -44 -111.5t-39 -100.5h166z" />
    <glyph glyph-name="Aring" unicode="&#xc5;" horiz-adv-x="671" 
d="M490 17q0 1 -2 6t-4 11q-3 7 -6 15l-54 137h-228q-16 -44 -28 -78t-21 -58l-11 -32q-3 -11 -3 -13.5v-4.5h-101q0 2 1.5 7.5t2.5 9.5l15 32q26 65 82 203t134 332q8 20 16 39t16 39h65l14 -35q51 -126 97 -238q27 -67 44.5 -111t35.5 -87.5t34 -82.5t27 -66l13 -29
q2 -5 3.5 -10.5t0.5 -4.5h-139q0 2 -1.5 9.5t-2.5 9.5zM335 710q-18 0 -34.5 7t-29 19.5t-20 28.5t-7.5 34q0 40 24.5 64t66.5 24q41 0 65.5 -23.5t24.5 -61.5t-26.5 -65t-63.5 -27zM311 477q-23 -59 -44 -111.5t-39 -100.5h166zM315 809q0 -26 7.5 -45.5t17.5 -19.5
q6 0 10 13.5t4 32.5q0 29 -6 46t-17 17q-8 0 -12 -12t-4 -32z" />
    <glyph glyph-name="Ccedilla" unicode="&#xc7;" horiz-adv-x="721" 
d="M313 -179q8 -9 25.5 -14.5t38.5 -5.5q17 0 27 7t10 19q0 11 -11 18.5t-28 9.5l-42 19q20 45 34.5 75.5t19.5 41.5q-72 2 -130.5 26t-100 65t-64.5 98.5t-23 126.5q0 82 25 149t70 114.5t108.5 73.5t141.5 26q72 0 128 -12t77 -32l3 -86q-5 0 -8.5 -0.5t-7.5 -0.5
q-12 2 -27 3t-26 5q-25 23 -63.5 37t-74.5 14q-48 0 -86.5 -18t-66.5 -50t-43 -77.5t-15 -101.5q0 -65 14.5 -118t40.5 -91t63 -59t82 -21q43 0 90.5 13.5t81.5 39.5v2q29 7 61 7l-5 -85q-25 -19 -76.5 -31.5t-115.5 -15.5l-9 -18t-14 -29q39 -10 61.5 -35t22.5 -60
q0 -40 -28.5 -64.5t-75.5 -24.5q-20 0 -43 12.5t-41 32.5v15z" />
    <glyph glyph-name="Egrave" unicode="&#xc8;" horiz-adv-x="581" 
d="M68 605l-3 36v19h422v-83h-17l-58 4h-214v-201h139q32 3 64 3v-86h-23q-28 2 -58 2.5t-61 0.5h-62v-221h239l58 5h17l1 -84h-447v19l3 36v550zM108 785q-9 5 -16.5 18t-13.5 26q-6 16 -11 35h115l87 -159h-17z" />
    <glyph glyph-name="Eacute" unicode="&#xc9;" horiz-adv-x="581" 
d="M197 79h239l58 5h17l1 -84h-447v19l3 36v550l-3 36v19h422v-83h-17l-58 4h-214v-201h139q32 3 64 3v-86h-23q-28 2 -58 2.5t-61 0.5h-62v-221zM260 705v1l87 159h115q-5 -19 -11 -35q-6 -15 -13.5 -27.5t-16.5 -17.5l-144 -80h-17z" />
    <glyph glyph-name="Ecircumflex" unicode="&#xca;" horiz-adv-x="581" 
d="M470 577l-58 4h-214v-201h139q32 3 64 3v-86h-23q-28 2 -58 2.5t-61 0.5h-62v-221h239l58 5h17l1 -84h-447v19l3 36v550l-3 36v19h422v-83h-17zM277 863l142 -157h1v-1l-1 1h-17l-141 72l-135 -72h-18l139 157h30z" />
    <glyph glyph-name="Edieresis" unicode="&#xcb;" horiz-adv-x="581" 
d="M197 79h239l58 5h17l1 -84h-447v19l3 36v550l-3 36v19h422v-83h-17l-58 4h-214v-201h139q32 3 64 3v-86h-23q-28 2 -58 2.5t-61 0.5h-62v-221zM297 807q0 32 20 52t52 20t52 -20t20 -52t-20 -52t-52 -20t-52 20t-20 52zM82 807q0 32 20 52t52 20t52 -20t20 -52t-20 -52
t-52 -20t-52 20t-20 52z" />
    <glyph glyph-name="Igrave" unicode="&#xcc;" horiz-adv-x="274" 
d="M70 660h135v-19l-3 -36v-550l3 -36v-19h-135v19l3 36v550l-3 36v19zM-16 785q-9 5 -16.5 18t-13.5 26q-6 16 -11 35h115l87 -159h-17z" />
    <glyph glyph-name="Iacute" unicode="&#xcd;" horiz-adv-x="274" 
d="M70 660h135v-19l-3 -36v-550l3 -36v-19h-135v19l3 36v550l-3 36v19zM137 705v1l87 159h115q-5 -19 -11 -35q-6 -15 -13.5 -27.5t-16.5 -17.5l-144 -80h-17z" />
    <glyph glyph-name="Icircumflex" unicode="&#xce;" horiz-adv-x="274" 
d="M70 641v19h135v-19l-3 -36v-550l3 -36v-19h-135v19l3 36v550zM-15 706l138 157h30l142 -157h1v-1l-1 1h-16l-141 72l-136 -72h-17z" />
    <glyph glyph-name="Idieresis" unicode="&#xcf;" horiz-adv-x="274" 
d="M70 660h135v-19l-3 -36v-550l3 -36v-19h-135v19l3 36v550l-3 36v19zM246 735q-32 0 -52 20t-20 52t20 52t52 20t51.5 -20t19.5 -52t-19.5 -52t-51.5 -20zM31 735q-32 0 -52 20t-20 52t20 52t52 20t51.5 -20t19.5 -52t-19.5 -52t-51.5 -20z" />
    <glyph glyph-name="Ntilde" unicode="&#xd1;" horiz-adv-x="656" 
d="M543 -5q-95 115 -189 228.5t-189 228.5v-397l4 -36v-19h-108v19l3 36v550l-4 55h104l329 -401v346l-4 36v19h107v-19l-3 -36v-610h-50zM190 728q20 54 40.5 87.5t56.5 33.5q17 0 36 -8.5t38.5 -19t38.5 -19t35 -8.5q18 0 27 13t17 34h19q-20 -56 -40.5 -89.5t-56.5 -33.5
q-16 0 -35 8.5t-38.5 19t-38.5 19t-36 8.5q-19 0 -27.5 -12.5t-16.5 -32.5h-19z" />
    <glyph glyph-name="Ograve" unicode="&#xd2;" horiz-adv-x="817" 
d="M70 324q0 78 24.5 142t69 109t107 70t138.5 25t138.5 -24.5t106.5 -69.5t68.5 -108t24.5 -140q0 -76 -24.5 -138.5t-68.5 -106.5t-106.5 -68.5t-138.5 -24.5t-138.5 24t-107 68t-69 105.5t-24.5 136.5zM383 600q-39 0 -71.5 -16t-55.5 -45.5t-35.5 -71t-12.5 -92.5
q0 -70 16.5 -128t46.5 -99t72.5 -63.5t94.5 -22.5q39 0 70.5 15.5t54 43.5t35 68t12.5 88q0 73 -16.5 132.5t-46 102t-71.5 65.5t-93 23zM314 864l87 -159h-17l-144 80q-9 5 -16.5 18t-13.5 26q-6 16 -11 35h115z" />
    <glyph glyph-name="Oacute" unicode="&#xd3;" horiz-adv-x="817" 
d="M70 324q0 78 24.5 142t69 109t107 70t138.5 25t138.5 -24.5t106.5 -69.5t68.5 -108t24.5 -140q0 -76 -24.5 -138.5t-68.5 -106.5t-106.5 -68.5t-138.5 -24.5t-138.5 24t-107 68t-69 105.5t-24.5 136.5zM208 375q0 -70 16.5 -128t46.5 -99t72.5 -63.5t94.5 -22.5
q39 0 70.5 15.5t54 43.5t35 68t12.5 88q0 73 -16.5 132.5t-46 102t-71.5 65.5t-93 23q-39 0 -71.5 -16t-55.5 -45.5t-35.5 -71t-12.5 -92.5zM392 705v1l87 159h115q-5 -19 -11 -35q-6 -15 -13.5 -27.5t-16.5 -17.5l-144 -80h-17z" />
    <glyph glyph-name="Ocircumflex" unicode="&#xd4;" horiz-adv-x="817" 
d="M409 -10q-76 0 -138.5 24t-107 68t-69 105.5t-24.5 136.5q0 78 24.5 142t69 109t107 70t138.5 25t138.5 -24.5t106.5 -69.5t68.5 -108t24.5 -140q0 -76 -24.5 -138.5t-68.5 -106.5t-106.5 -68.5t-138.5 -24.5zM208 375q0 -70 16.5 -128t46.5 -99t72.5 -63.5t94.5 -22.5
q39 0 70.5 15.5t54 43.5t35 68t12.5 88q0 73 -16.5 132.5t-46 102t-71.5 65.5t-93 23q-39 0 -71.5 -16t-55.5 -45.5t-35.5 -71t-12.5 -92.5zM409 863l142 -157h1v-1l-1 1h-17l-141 72l-135 -72h-18l139 157h30z" />
    <glyph glyph-name="Otilde" unicode="&#xd5;" horiz-adv-x="817" 
d="M70 324q0 78 24.5 142t69 109t107 70t138.5 25t138.5 -24.5t106.5 -69.5t68.5 -108t24.5 -140q0 -76 -24.5 -138.5t-68.5 -106.5t-106.5 -68.5t-138.5 -24.5t-138.5 24t-107 68t-69 105.5t-24.5 136.5zM208 375q0 -70 16.5 -128t46.5 -99t72.5 -63.5t94.5 -22.5
q39 0 70.5 15.5t54 43.5t35 68t12.5 88q0 73 -16.5 132.5t-46 102t-71.5 65.5t-93 23q-39 0 -71.5 -16t-55.5 -45.5t-35.5 -71t-12.5 -92.5zM240 728q20 54 40.5 87.5t55.5 33.5q17 0 36 -8.5t38.5 -19t38.5 -19t36 -8.5t26 13t17 34h19q-20 -56 -40.5 -89.5t-55.5 -33.5
q-17 0 -36 8.5t-38.5 19t-38.5 19t-36 8.5q-18 0 -26.5 -12.5t-16.5 -32.5h-19z" />
    <glyph glyph-name="Odieresis" unicode="&#xd6;" horiz-adv-x="817" 
d="M409 -10q-76 0 -138.5 24t-107 68t-69 105.5t-24.5 136.5q0 78 24.5 142t69 109t107 70t138.5 25t138.5 -24.5t106.5 -69.5t68.5 -108t24.5 -140q0 -76 -24.5 -138.5t-68.5 -106.5t-106.5 -68.5t-138.5 -24.5zM208 375q0 -70 16.5 -128t46.5 -99t72.5 -63.5t94.5 -22.5
q39 0 70.5 15.5t54 43.5t35 68t12.5 88q0 73 -16.5 132.5t-46 102t-71.5 65.5t-93 23q-39 0 -71.5 -16t-55.5 -45.5t-35.5 -71t-12.5 -92.5zM501 735q-32 0 -52 20t-20 52t20 52t52 20t52 -20t20 -52t-20 -52t-52 -20zM286 735q-32 0 -52 20t-20 52t20 52t52 20t52 -20
t20 -52t-20 -52t-52 -20z" />
    <glyph glyph-name="Oslash" unicode="&#xd8;" horiz-adv-x="817" 
d="M69 324q0 78 24.5 141.5t69 108.5t107 70t138.5 25q57 0 105.5 -13.5t88.5 -39.5l45 53h99l-86 -101q42 -45 64 -105.5t22 -134.5q0 -76 -24.5 -138.5t-68.5 -106.5t-106.5 -68.5t-138.5 -24.5q-57 0 -106 13.5t-89 39.5l-44 -52h-99l85 100q-41 44 -63 102.5t-23 130.5z
M207 373q0 -53 9.5 -98t26.5 -82l287 338q-29 32 -66 49.5t-82 17.5q-39 0 -71.5 -16t-55.5 -45.5t-35.5 -71t-12.5 -92.5zM286 129q29 -32 67.5 -49.5t83.5 -17.5q39 0 70.5 15.5t54 43.5t35 68t12.5 88q0 109 -37 188z" />
    <glyph glyph-name="Ugrave" unicode="&#xd9;" horiz-adv-x="653" 
d="M322 -10q-59 0 -108 17.5t-83.5 49.5t-53.5 77t-19 100v371l-3 36v19h135v-19l-3 -36v-348q0 -41 12.5 -75t35.5 -58t55 -37.5t71 -13.5q57 0 91 35.5t34 94.5v402l-4 36v19h107v-19l-3 -36v-371q0 -55 -19 -100t-53.5 -77t-83.5 -49.5t-108 -17.5zM252 864l87 -159h-17
l-144 80q-9 5 -16.5 18t-13.5 26q-6 16 -11 35h115z" />
    <glyph glyph-name="Uacute" unicode="&#xda;" horiz-adv-x="653" 
d="M322 -10q-59 0 -108 17.5t-83.5 49.5t-53.5 77t-19 100v371l-3 36v19h135v-19l-3 -36v-348q0 -41 12.5 -75t35.5 -58t55 -37.5t71 -13.5q57 0 91 35.5t34 94.5v402l-4 36v19h107v-19l-3 -36v-371q0 -55 -19 -100t-53.5 -77t-83.5 -49.5t-108 -17.5zM408 865h115
q-5 -19 -11 -35q-6 -15 -13.5 -27.5t-16.5 -17.5l-144 -80h-17v1z" />
    <glyph glyph-name="Ucircumflex" unicode="&#xdb;" horiz-adv-x="653" 
d="M187 257q0 -41 12.5 -75t35.5 -58t55 -37.5t71 -13.5q57 0 91 35.5t34 94.5v402l-4 36v19h107v-19l-3 -36v-371q0 -55 -19 -100t-53.5 -77t-83.5 -49.5t-108 -17.5t-108 17.5t-83.5 49.5t-53.5 77t-19 100v371l-3 36v19h135v-19l-3 -36v-348zM179 706l138 157h30
l142 -157h1v-1l-1 1h-16l-141 72l-136 -72h-17z" />
    <glyph glyph-name="Udieresis" unicode="&#xdc;" horiz-adv-x="653" 
d="M187 257q0 -41 12.5 -75t35.5 -58t55 -37.5t71 -13.5q57 0 91 35.5t34 94.5v402l-4 36v19h107v-19l-3 -36v-371q0 -55 -19 -100t-53.5 -77t-83.5 -49.5t-108 -17.5t-108 17.5t-83.5 49.5t-53.5 77t-19 100v371l-3 36v19h135v-19l-3 -36v-348zM440 735q-32 0 -52 20
t-20 52t20 52t52 20t51.5 -20t19.5 -52t-19.5 -52t-51.5 -20zM153 807q0 32 20 52t52 20t51.5 -20t19.5 -52t-19.5 -52t-51.5 -20t-52 20t-20 52z" />
    <glyph glyph-name="Yacute" unicode="&#xdd;" horiz-adv-x="672" 
d="M210 605q39 -53 78.5 -105.5t78.5 -106.5l137 212l25 35q2 2 5 10.5t3 9.5h100l-26 -40q-51 -76 -100 -152t-99 -152v-261l3 -36v-19h-135v19l3 36v256l-213 299q-3 3 -8.5 11.5t-12.5 17.5q-7 10 -15 22h139l5 -10q5 -9 6 -10.5t2.5 -4t6 -8.5t17.5 -23zM334 706l87 159
h115q-5 -19 -11 -35q-6 -15 -13.5 -27.5t-16.5 -17.5l-144 -80h-17v1z" />
    <glyph glyph-name="agrave" unicode="&#xe0;" horiz-adv-x="497" 
d="M285 49q-26 -29 -63 -44t-78 -15q-48 0 -76.5 28t-28.5 75q0 49 59 93t177 73v63q0 32 -18.5 51.5t-55.5 19.5q-14 0 -23 -15.5t-9 -38.5l-1 -42l-5 -5h-84q-14 -1 -22 10t-8 30q0 28 14.5 51.5t39.5 41t59.5 27t74.5 9.5q76 0 114.5 -29.5t38.5 -77.5v-71
q-1 -37 -1 -84.5v-107.5q0 -8 19 -13.5t50 -5.5q26 0 28 5l5 -8q-14 -35 -44.5 -56.5t-66.5 -21.5q-34 0 -58.5 15.5t-36.5 42.5zM84 619q-9 6 -16.5 20t-13.5 30q-6 17 -11 38h115l87 -177h-17zM150 123q0 -21 16.5 -33.5t42.5 -12.5q40 0 65 12v120q-62 -17 -93 -39.5
t-31 -46.5z" />
    <glyph glyph-name="aacute" unicode="&#xe1;" horiz-adv-x="497" 
d="M163 292h-84q-14 -1 -22 10t-8 30q0 28 14.5 51.5t39.5 41t59.5 27t74.5 9.5q76 0 114.5 -29.5t38.5 -77.5v-71q-1 -37 -1 -84.5v-107.5q0 -8 19 -13.5t50 -5.5q26 0 28 5l5 -8q-14 -35 -44.5 -56.5t-66.5 -21.5q-34 0 -58.5 15.5t-36.5 42.5q-26 -29 -63 -44t-78 -15
q-48 0 -76.5 28t-28.5 75q0 49 59 93t177 73v63q0 32 -18.5 51.5t-55.5 19.5q-14 0 -23 -15.5t-9 -38.5l-1 -42zM324 707h115q-5 -21 -11 -38t-13.5 -30.5t-16.5 -19.5l-144 -89h-17zM274 209q-62 -17 -93 -39.5t-31 -46.5q0 -21 16.5 -33.5t42.5 -12.5q40 0 65 12v120z" />
    <glyph glyph-name="acircumflex" unicode="&#xe2;" horiz-adv-x="497" 
d="M390 354v-71q-1 -37 -1 -84.5v-107.5q0 -8 19 -13.5t50 -5.5q26 0 28 5l5 -8q-14 -35 -44.5 -56.5t-66.5 -21.5q-34 0 -58.5 15.5t-36.5 42.5q-26 -29 -63 -44t-78 -15q-48 0 -76.5 28t-28.5 75q0 49 59 93t177 73v63q0 32 -18.5 51.5t-55.5 19.5q-14 0 -23 -15.5
t-9 -38.5l-1 -42l-5 -5h-84q-14 -1 -22 10t-8 30q0 28 14.5 51.5t39.5 41t59.5 27t74.5 9.5q76 0 114.5 -29.5t38.5 -77.5zM223 705h30l143 -175h-17l-141 80l-136 -80h-17zM150 123q0 -21 16.5 -33.5t42.5 -12.5q40 0 65 12v120q-62 -17 -93 -39.5t-31 -46.5z" />
    <glyph glyph-name="atilde" unicode="&#xe3;" horiz-adv-x="497" 
d="M390 354v-71q-1 -37 -1 -84.5v-107.5q0 -8 19 -13.5t50 -5.5q26 0 28 5l5 -8q-14 -35 -44.5 -56.5t-66.5 -21.5q-34 0 -58.5 15.5t-36.5 42.5q-26 -29 -63 -44t-78 -15q-48 0 -76.5 28t-28.5 75q0 49 59 93t177 73v63q0 32 -18.5 51.5t-55.5 19.5q-14 0 -23 -15.5
t-9 -38.5l-1 -42l-5 -5h-84q-14 -1 -22 10t-8 30q0 28 14.5 51.5t39.5 41t59.5 27t74.5 9.5q76 0 114.5 -29.5t38.5 -77.5zM69 555q20 60 40.5 97t56.5 37q17 0 36 -9.5t38.5 -21t38.5 -21t35 -9.5q18 0 27 14.5t17 37.5h19q-20 -61 -40.5 -98.5t-56.5 -37.5q-16 0 -35 9.5
t-38.5 21t-38.5 21t-36 9.5q-19 0 -27.5 -13.5t-16.5 -36.5h-19zM150 123q0 -21 16.5 -33.5t42.5 -12.5q40 0 65 12v120q-62 -17 -93 -39.5t-31 -46.5z" />
    <glyph glyph-name="adieresis" unicode="&#xe4;" horiz-adv-x="497" 
d="M390 354v-71q-1 -37 -1 -84.5v-107.5q0 -8 19 -13.5t50 -5.5q26 0 28 5l5 -8q-14 -35 -44.5 -56.5t-66.5 -21.5q-34 0 -58.5 15.5t-36.5 42.5q-26 -29 -63 -44t-78 -15q-48 0 -76.5 28t-28.5 75q0 49 59 93t177 73v63q0 32 -18.5 51.5t-55.5 19.5q-14 0 -23 -15.5
t-9 -38.5l-1 -42l-5 -5h-84q-14 -1 -22 10t-8 30q0 28 14.5 51.5t39.5 41t59.5 27t74.5 9.5q76 0 114.5 -29.5t38.5 -77.5zM116 570q-32 0 -52 20t-20 52t20 52t52 20t51.5 -20t19.5 -52t-19.5 -52t-51.5 -20zM259 642q0 32 20 52t52 20t51.5 -20t19.5 -52t-19.5 -52
t-51.5 -20t-52 20t-20 52zM274 209q-62 -17 -93 -39.5t-31 -46.5q0 -21 16.5 -33.5t42.5 -12.5q40 0 65 12v120z" />
    <glyph glyph-name="aring" unicode="&#xe5;" horiz-adv-x="497" 
d="M390 354v-71q-1 -37 -1 -84.5v-107.5q0 -8 19 -13.5t50 -5.5q26 0 28 5l5 -8q-14 -35 -44.5 -56.5t-66.5 -21.5q-34 0 -58.5 15.5t-36.5 42.5q-26 -29 -63 -44t-78 -15q-48 0 -76.5 28t-28.5 75q0 49 59 93t177 73v63q0 32 -18.5 51.5t-55.5 19.5q-14 0 -23 -15.5
t-9 -38.5l-1 -42l-5 -5h-84q-14 -1 -22 10t-8 30q0 28 14.5 51.5t39.5 41t59.5 27t74.5 9.5q76 0 114.5 -29.5t38.5 -77.5zM137 624q0 40 24.5 64t66.5 24t66.5 -23.5t24.5 -61.5q0 -19 -7.5 -35.5t-20 -29t-29 -20t-34.5 -7.5t-34.5 7t-29 19.5t-20 28.5t-7.5 34zM274 209
q-62 -17 -93 -39.5t-31 -46.5q0 -21 16.5 -33.5t42.5 -12.5q40 0 65 12v120zM225 678q-8 0 -12.5 -12t-4.5 -32q0 -26 7.5 -45.5t18.5 -19.5q6 0 10 13.5t4 32.5q0 29 -6 46t-17 17z" />
    <glyph glyph-name="ccedilla" unicode="&#xe7;" horiz-adv-x="477" 
d="M170 -182q8 -9 25.5 -14.5t38.5 -5.5q17 0 27 7t10 19q0 11 -11 18.5t-28 9.5l-42 19q20 45 34.5 75.5t19.5 41.5q-44 3 -80 19t-61.5 43.5t-39.5 65t-14 82.5q0 59 16.5 106.5t47 82t73 53t94.5 18.5q17 0 42.5 -3.5t49.5 -12.5t41.5 -24t17.5 -39q0 -15 -3.5 -27.5
t-8.5 -17.5l-66 -34h-7l-34 49q-13 19 -32.5 30.5t-39.5 11.5q-35 0 -56 -35t-21 -93q0 -76 43 -122t115 -46q24 0 53.5 11.5t53.5 30.5h4v-13q-20 -51 -55.5 -85t-78.5 -45q-2 -3 -7.5 -16t-15.5 -35l-1 -1q39 -10 61.5 -35t22.5 -60q0 -40 -28.5 -64.5t-75.5 -24.5
q-20 0 -43 12.5t-41 32.5v15z" />
    <glyph glyph-name="egrave" unicode="&#xe8;" horiz-adv-x="483" 
d="M260 -10q-48 0 -86.5 15t-66.5 42.5t-43 66.5t-15 86q0 59 15 106.5t43 82t66.5 53t86.5 18.5q39 0 70.5 -15.5t54 -43t35 -67t12.5 -87.5l-51 -7h-217q8 -66 49.5 -104.5t107.5 -38.5q24 0 53.5 11.5t53.5 30.5h4v-13q-24 -62 -71 -99t-101 -37zM98 619q-9 6 -16.5 20
t-13.5 30q-6 17 -11 38h115l87 -177h-17zM243 395q-29 0 -49 -23.5t-27 -64.5h156q-9 42 -30 65t-50 23z" />
    <glyph glyph-name="eacute" unicode="&#xe9;" horiz-adv-x="483" 
d="M49 200q0 59 15 106.5t43 82t66.5 53t86.5 18.5q39 0 70.5 -15.5t54 -43t35 -67t12.5 -87.5l-51 -7h-217q8 -66 49.5 -104.5t107.5 -38.5q24 0 53.5 11.5t53.5 30.5h4v-13q-24 -62 -71 -99t-101 -37q-48 0 -86.5 15t-66.5 42.5t-43 66.5t-15 86zM337 707h115
q-5 -21 -11 -38t-13.5 -30.5t-16.5 -19.5l-144 -89h-17zM323 307q-9 42 -30 65t-50 23t-49 -23.5t-27 -64.5h156z" />
    <glyph glyph-name="ecircumflex" unicode="&#xea;" horiz-adv-x="483" 
d="M49 200q0 59 15 106.5t43 82t66.5 53t86.5 18.5q39 0 70.5 -15.5t54 -43t35 -67t12.5 -87.5l-51 -7h-217q8 -66 49.5 -104.5t107.5 -38.5q24 0 53.5 11.5t53.5 30.5h4v-13q-24 -62 -71 -99t-101 -37q-48 0 -86.5 15t-66.5 42.5t-43 66.5t-15 86zM237 705h30l143 -175h-18
l-140 80l-136 -80h-18zM243 395q-29 0 -49 -23.5t-27 -64.5h156q-9 42 -30 65t-50 23z" />
    <glyph glyph-name="edieresis" unicode="&#xeb;" horiz-adv-x="483" 
d="M260 -10q-48 0 -86.5 15t-66.5 42.5t-43 66.5t-15 86q0 59 15 106.5t43 82t66.5 53t86.5 18.5q39 0 70.5 -15.5t54 -43t35 -67t12.5 -87.5l-51 -7h-217q8 -66 49.5 -104.5t107.5 -38.5q24 0 53.5 11.5t53.5 30.5h4v-13q-24 -62 -71 -99t-101 -37zM144 570q-32 0 -52 20
t-20 52t20 52t52 20t52 -20t20 -52t-20 -52t-52 -20zM359 570q-32 0 -52 20t-20 52t20 52t52 20t52 -20t20 -52t-20 -52t-52 -20zM323 307q-9 42 -30 65t-50 23t-49 -23.5t-27 -64.5h156z" />
    <glyph glyph-name="igrave" unicode="&#xec;" horiz-adv-x="226" 
d="M54 418l2 1v3h7l85 38h23v-410l2 -32v-18h-119v18l2 32v284q0 8 -1 19q0 9 -0.5 21t-0.5 27v17zM-45 619q-9 6 -16.5 20t-13.5 30q-6 17 -11 38h115l87 -177h-17z" />
    <glyph glyph-name="iacute" unicode="&#xed;" horiz-adv-x="226" 
d="M56 419v3h7l85 38h23v-410l2 -32v-18h-119v18l2 32v284q0 8 -1 19q0 9 -0.5 21t-0.5 27v17zM108 530l87 177h115q-5 -21 -11 -38t-13.5 -30.5t-16.5 -19.5l-144 -89h-17z" />
    <glyph glyph-name="icircumflex" unicode="&#xee;" horiz-adv-x="226" 
d="M54 418l2 1v3h7l85 38h23v-410l2 -32v-18h-119v18l2 32v284q0 8 -1 19q0 9 -0.5 21t-0.5 27v17zM-44 530l138 175h30l143 -175h-17l-141 80l-136 -80h-17z" />
    <glyph glyph-name="idieresis" unicode="&#xef;" horiz-adv-x="226" 
d="M54 418l2 1v3h7l85 38h23v-410l2 -32v-18h-119v18l2 32v284q0 8 -1 19q0 9 -0.5 21t-0.5 27v17zM217 570q-32 0 -52 20t-20 52t20 52t52 20t51.5 -20t19.5 -52t-19.5 -52t-51.5 -20zM2 714q32 0 51.5 -20t19.5 -52t-19.5 -52t-51.5 -20t-52 20t-20 52t20 52t52 20z" />
    <glyph glyph-name="ntilde" unicode="&#xf1;" horiz-adv-x="473" 
d="M433 18v-18h-120v18l3 32v227q0 37 -20.5 59.5t-54.5 22.5q-26 0 -44 -5t-30 -13v-291l3 -32v-18h-120v18l2 32v284q0 8 -1 19q0 9 -0.5 21t-0.5 27v17l88 42h23q0 -12 1 -25q0 -12 0.5 -25t0.5 -26h2q34 35 68.5 55.5t70.5 20.5q57 0 92 -32t35 -85v-293zM395 680
q-20 -62 -40.5 -99t-55.5 -37q-17 0 -36 9.5t-38.5 21t-38.5 21t-36 9.5q-18 0 -26.5 -13.5t-16.5 -36.5h-19q20 60 40.5 97t55.5 37q17 0 36 -9.5t38.5 -21t38.5 -21t36 -9.5t26 14.5t17 37.5h19z" />
    <glyph glyph-name="ograve" unicode="&#xf2;" horiz-adv-x="548" 
d="M50 225q0 53 14 96.5t42.5 74t70.5 47.5t97 17q50 0 91.5 -17t71 -47.5t45.5 -74t16 -96.5t-14 -96.5t-42.5 -74t-70 -47.5t-97.5 -17q-50 0 -91.5 17t-71 47.5t-45.5 74t-16 96.5zM182 225q0 -79 30.5 -127t81.5 -48q36 0 54 48t18 127t-30.5 127t-81.5 48
q-36 0 -54 -48t-18 -127zM194 707l87 -177h-17l-144 89q-9 6 -16.5 20t-13.5 30q-6 17 -11 38h115z" />
    <glyph glyph-name="oacute" unicode="&#xf3;" horiz-adv-x="548" 
d="M50 225q0 53 14 96.5t42.5 74t70.5 47.5t97 17q50 0 91.5 -17t71 -47.5t45.5 -74t16 -96.5t-14 -96.5t-42.5 -74t-70 -47.5t-97.5 -17q-50 0 -91.5 17t-71 47.5t-45.5 74t-16 96.5zM182 225q0 -79 30.5 -127t81.5 -48q36 0 54 48t18 127t-30.5 127t-81.5 48
q-36 0 -54 -48t-18 -127zM273 530l87 177h115q-5 -21 -11 -38t-13.5 -30.5t-16.5 -19.5l-144 -89h-17z" />
    <glyph glyph-name="ocircumflex" unicode="&#xf4;" horiz-adv-x="548" 
d="M274 -10q-50 0 -91.5 17t-71 47.5t-45.5 74t-16 96.5t14 96.5t42.5 74t70.5 47.5t97 17q50 0 91.5 -17t71 -47.5t45.5 -74t16 -96.5t-14 -96.5t-42.5 -74t-70 -47.5t-97.5 -17zM254 400q-36 0 -54 -48t-18 -127t30.5 -127t81.5 -48q36 0 54 48t18 127t-30.5 127t-81.5 48
zM259 705h30l143 -175h-17l-141 80l-136 -80h-17z" />
    <glyph glyph-name="otilde" unicode="&#xf5;" horiz-adv-x="548" 
d="M50 225q0 53 14 96.5t42.5 74t70.5 47.5t97 17q50 0 91.5 -17t71 -47.5t45.5 -74t16 -96.5t-14 -96.5t-42.5 -74t-70 -47.5t-97.5 -17q-50 0 -91.5 17t-71 47.5t-45.5 74t-16 96.5zM182 225q0 -79 30.5 -127t81.5 -48q36 0 54 48t18 127t-30.5 127t-81.5 48
q-36 0 -54 -48t-18 -127zM120 555q20 60 40.5 97t56.5 37q17 0 36 -9.5t38.5 -21t38.5 -21t35 -9.5q18 0 27 14.5t17 37.5h19q-20 -61 -40.5 -98.5t-56.5 -37.5q-16 0 -35 9.5t-38.5 21t-38.5 21t-36 9.5q-19 0 -27.5 -13.5t-16.5 -36.5h-19z" />
    <glyph glyph-name="odieresis" unicode="&#xf6;" horiz-adv-x="548" 
d="M274 -10q-50 0 -91.5 17t-71 47.5t-45.5 74t-16 96.5t14 96.5t42.5 74t70.5 47.5t97 17q50 0 91.5 -17t71 -47.5t45.5 -74t16 -96.5t-14 -96.5t-42.5 -74t-70 -47.5t-97.5 -17zM182 225q0 -79 30.5 -127t81.5 -48q36 0 54 48t18 127t-30.5 127t-81.5 48q-36 0 -54 -48
t-18 -127zM310 642q0 32 20 52t52 20t51.5 -20t19.5 -52t-19.5 -52t-51.5 -20t-52 20t-20 52zM95 642q0 32 20 52t52 20t51.5 -20t19.5 -52t-19.5 -52t-51.5 -20t-52 20t-20 52z" />
    <glyph glyph-name="oslash" unicode="&#xf8;" horiz-adv-x="548" 
d="M50 -11l55 73q-26 31 -40.5 72t-14.5 91q0 53 14 96.5t42.5 74t70.5 47.5t97 17q60 0 110 -25l19 25h95l-55 -73q26 -31 40.5 -72t14.5 -91q0 -53 -14 -96.5t-42.5 -74t-70 -47.5t-97.5 -17q-60 0 -110 25l-19 -25h-95zM220 88q30 -39 75 -39q36 0 54 48t18 127
q0 14 -1 27.5t-3 26.5zM255 400q-36 0 -54 -48t-18 -127q0 -14 1 -27.5t3 -26.5l142 190h1q-30 39 -75 39z" />
    <glyph glyph-name="ugrave" unicode="&#xf9;" horiz-adv-x="435" 
d="M25 432v18h117v-274q0 -37 20.5 -59t54.5 -22q23 0 42.5 3t32.5 9v293l-4 31v18h118v-400l3 -32v-18h-118v58q-36 -33 -72.5 -50t-67.5 -17q-56 0 -90 32t-34 85v293zM59 619q-9 6 -16.5 20t-13.5 30q-6 17 -11 38h115l87 -177h-17z" />
    <glyph glyph-name="uacute" unicode="&#xfa;" horiz-adv-x="435" 
d="M151 -10q-56 0 -90 32t-34 85v293l-2 32v18h117v-274q0 -37 20.5 -59t54.5 -22q23 0 42.5 3t32.5 9v293l-4 31v18h118v-400l3 -32v-18h-118v58q-36 -33 -72.5 -50t-67.5 -17zM298 707h115q-5 -21 -11 -38t-13.5 -30.5t-16.5 -19.5l-144 -89h-17z" />
    <glyph glyph-name="ucircumflex" unicode="&#xfb;" horiz-adv-x="435" 
d="M142 176q0 -37 20.5 -59t54.5 -22q23 0 42.5 3t32.5 9v293l-4 31v18h118v-400l3 -32v-18h-118v58q-36 -33 -72.5 -50t-67.5 -17q-56 0 -90 32t-34 85v293l-2 32v18h117v-274zM59 530l139 175h30l143 -175h-18l-140 80l-136 -80h-18z" />
    <glyph glyph-name="udieresis" unicode="&#xfc;" horiz-adv-x="435" 
d="M142 176q0 -37 20.5 -59t54.5 -22q23 0 42.5 3t32.5 9v293l-4 31v18h118v-400l3 -32v-18h-118v58q-36 -33 -72.5 -50t-67.5 -17q-56 0 -90 32t-34 85v293l-2 32v18h117v-274zM320 570q-32 0 -52 20t-20 52t20 52t52 20t52 -20t20 -52t-20 -52t-52 -20zM33 642q0 32 20 52
t52 20t52 -20t20 -52t-20 -52t-52 -20t-52 20t-20 52z" />
    <glyph glyph-name="yacute" unicode="&#xfd;" horiz-adv-x="390" 
d="M412 450q-1 -3 -1 -6q-3 -8 -5 -13l-15 -33l-195 -469q-35 -92 -71 -130.5t-86 -38.5q-26 0 -37.5 9.5t-11.5 32.5v74l4 4h66q30 0 49 15.5t33 53.5l26 63l-170 389l-14 29l-1 1v0l-4 12l-1 5h129v1q1 -3 2.5 -10t1.5 -9l26 -32q-11 14 -15 14q-3 0 3 -14q26 -60 52 -119
t52 -119l99 235q8 17 3 17q-2 0 -13 -14l25 33q1 3 1.5 7t2.5 12h65zM444 707q-5 -21 -11 -38t-13.5 -30.5t-16.5 -19.5l-144 -89h-17l87 177h115zM316 396l2 2z" />
    <glyph glyph-name="ydieresis" unicode="&#xff;" horiz-adv-x="390" 
d="M391 398l-195 -469q-35 -92 -71 -130.5t-86 -38.5q-26 0 -37.5 9.5t-11.5 32.5v74l4 4h66q30 0 49 15.5t33 53.5l26 63l-170 389l-14 29l-1 1v0l-4 12l-1 5h129v1q1 -3 2.5 -10t1.5 -9l26 -32q-11 14 -15 14q-3 0 3 -14q26 -60 52 -119t52 -119l99 235q8 17 3 17
q-2 0 -13 -14l25 33q1 3 1.5 7t2.5 12h65q-1 -3 -1 -6q-3 -8 -5 -13zM136 570q-32 0 -52 20t-20 52t20 52t52 20t51.5 -20t19.5 -52t-19.5 -52t-51.5 -20zM422 642q0 -32 -19.5 -52t-51.5 -20t-52 20t-20 52t20 52t52 20t51.5 -20t19.5 -52zM316 396l2 2z" />
    <glyph glyph-name="Amacron" unicode="&#x100;" horiz-adv-x="671" 
d="M267 584q8 20 16 39t16 39h65l14 -35q50 -126 96 -238q26 -67 44 -111t35.5 -87.5t33.5 -82.5t27 -66h2l13 -29q2 -5 3.5 -10.5t0.5 -4.5h-139q0 2 -1.5 9.5t-2.5 9.5l-17 23q6 -7 8 -7q3 0 0 8q-1 4 -3 8l-55 139v-2h-224v7q-17 -46 -30.5 -82t-22.5 -61h1
q-6 -15 -2 -15q3 0 10 9l-19 -26q-3 -11 -3 -13.5v-4.5h-101q0 2 1.5 7.5t2.5 9.5l15 32q26 65 82 203t134 332zM468 763h-266v72h266v-72zM311 477q-23 -59 -44 -111.5t-39 -100.5h166z" />
    <glyph glyph-name="amacron" unicode="&#x101;" horiz-adv-x="497" 
d="M285 49q-26 -29 -63 -44t-78 -15q-48 0 -76.5 28t-28.5 75q0 49 59 93t177 73v63q0 32 -18.5 51.5t-55.5 19.5q-14 0 -23 -15.5t-9 -38.5l-1 -42l-5 -5h-84q-14 -1 -22 10t-8 30q0 28 14.5 51.5t39.5 41t59.5 27t74.5 9.5q76 0 114.5 -29.5t38.5 -77.5v-71
q-1 -37 -1 -84.5v-107.5q0 -8 19 -13.5t50 -5.5q26 0 28 5l5 -8q-14 -35 -44.5 -56.5t-66.5 -21.5q-34 0 -58.5 15.5t-36.5 42.5zM95 593v72h266v-72h-266zM274 209q-62 -17 -93 -39.5t-31 -46.5q0 -21 16.5 -33.5t42.5 -12.5q40 0 65 12v120z" />
    <glyph glyph-name="Abreve" unicode="&#x102;" horiz-adv-x="671" 
d="M267 584q8 20 16 39t16 39h65l14 -35q50 -126 96 -238q26 -67 44 -111t35.5 -87.5t33.5 -82.5t27 -66h2l13 -29q2 -5 3.5 -10.5t0.5 -4.5h-139q0 2 -1.5 9.5t-2.5 9.5l-17 23q6 -7 8 -7q3 0 0 8q-1 4 -3 8l-55 139v-2h-224v7q-17 -46 -30.5 -82t-22.5 -61h1
q-6 -15 -2 -15q3 0 10 9l-19 -26q-3 -11 -3 -13.5v-4.5h-101q0 2 1.5 7.5t2.5 9.5l15 32q26 65 82 203t134 332zM494 868q-30 -83 -66.5 -118.5t-92.5 -35.5t-93 35.5t-67 118.5h20q14 -37 45.5 -52.5t94.5 -15.5t94 15.5t45 52.5h20zM311 477q-23 -59 -44 -111.5
t-39 -100.5h166z" />
    <glyph glyph-name="abreve" unicode="&#x103;" horiz-adv-x="497" 
d="M390 354v-71q-1 -37 -1 -84.5v-107.5q0 -8 19 -13.5t50 -5.5q26 0 28 5l5 -8q-14 -35 -44.5 -56.5t-66.5 -21.5q-34 0 -58.5 15.5t-36.5 42.5q-26 -29 -63 -44t-78 -15q-48 0 -76.5 28t-28.5 75q0 49 59 93t177 73v63q0 32 -18.5 51.5t-55.5 19.5q-14 0 -23 -15.5
t-9 -38.5l-1 -42l-5 -5h-84q-14 -1 -22 10t-8 30q0 28 14.5 51.5t39.5 41t59.5 27t74.5 9.5q76 0 114.5 -29.5t38.5 -77.5zM88 711q14 -41 45.5 -58t94.5 -17t94.5 17t45.5 58h20q-30 -92 -67 -131.5t-93 -39.5t-93 39.5t-67 131.5h20zM150 123q0 -21 16.5 -33.5t42.5 -12.5
q40 0 65 12v120q-62 -17 -93 -39.5t-31 -46.5z" />
    <glyph glyph-name="Cacute" unicode="&#x106;" horiz-adv-x="721" 
d="M402 62q43 0 89 15.5t80 41.5l3 -4q29 7 61 7l-5 -85q-14 -10 -37 -19t-53 -15t-65 -9.5t-72 -3.5q-75 0 -136.5 23t-105.5 64.5t-68 100t-24 129.5q0 82 25 149t70 114.5t108.5 73.5t141.5 26q72 0 128 -12t77 -32l3 -86q-5 0 -8.5 -0.5t-7.5 -0.5q-12 2 -27 3t-26 5
l-2 -3h-2q-25 23 -62.5 38.5t-73.5 15.5q-48 0 -86.5 -18t-66.5 -50t-43 -77.5t-15 -101.5q0 -65 14.5 -118t40.5 -91t63 -59t82 -21zM369 705v1l87 159h115q-5 -19 -11 -35q-6 -15 -13.5 -27.5t-16.5 -17.5l-144 -80h-17z" />
    <glyph glyph-name="cacute" unicode="&#x107;" horiz-adv-x="477" 
d="M50 200q0 59 16.5 106.5t47 82t73 53t94.5 18.5q17 0 42.5 -3.5t49.5 -12.5t41.5 -24t17.5 -39q0 -15 -3.5 -27.5t-8.5 -17.5l-66 -34h-7l-34 49q-13 19 -32.5 30.5t-39.5 11.5q-35 0 -56 -35t-21 -93q0 -76 43 -122t115 -46q24 0 53.5 11.5t53.5 30.5h4v-13
q-24 -62 -71 -99t-101 -37q-48 0 -86.5 15t-66.5 42.5t-43 66.5t-15 86zM259 530l87 177h115q-5 -21 -11 -38t-13.5 -30.5t-16.5 -19.5l-144 -89h-17z" />
    <glyph glyph-name="Ccaron" unicode="&#x10c;" horiz-adv-x="721" 
d="M622 540q-5 0 -8.5 -0.5t-7.5 -0.5q-12 2 -27 3t-26 5l-2 -3h-2q-25 23 -62.5 38.5t-73.5 15.5q-48 0 -86.5 -18t-66.5 -50t-43 -77.5t-15 -101.5q0 -65 14.5 -118t40.5 -91t63 -59t82 -21q43 0 89 15.5t80 41.5l3 -4q29 7 61 7l-5 -85q-14 -10 -37 -19t-53 -15t-65 -9.5
t-72 -3.5q-75 0 -136.5 23t-105.5 64.5t-68 100t-24 129.5q0 82 25 149t70 114.5t108.5 73.5t141.5 26q72 0 128 -12t77 -32zM390 795l141 72h16l1 1v-1h-1l-142 -157l-1 1h-28l-1 -1l-138 157h17z" />
    <glyph glyph-name="ccaron" unicode="&#x10d;" horiz-adv-x="477" 
d="M241 393q-35 0 -56 -35t-21 -93q0 -76 43 -122t115 -46q24 0 53.5 11.5t53.5 30.5h4v-13q-24 -62 -71 -99t-101 -37q-48 0 -86.5 15t-66.5 42.5t-43 66.5t-15 86q0 59 16.5 106.5t47 82t73 53t94.5 18.5q17 0 42.5 -3.5t49.5 -12.5t41.5 -24t17.5 -39q0 -15 -3.5 -27.5
t-8.5 -17.5l-66 -34h-7l-34 49q-13 19 -32.5 30.5t-39.5 11.5zM124 710l136 -80l141 80h17l-143 -175h-30l-138 175h17z" />
    <glyph glyph-name="Dcaron" unicode="&#x10e;" horiz-adv-x="708" 
d="M67 605l-3 36v19h216q81 0 147 -19t113 -56t72.5 -92.5t25.5 -129.5q0 -87 -24 -153.5t-68 -112.5t-105.5 -70t-136.5 -27h-240v19l3 36v550zM197 581v-502l104 -1q91 3 146.5 63t55.5 172q0 66 -18.5 116.5t-53 84t-82 50.5t-106.5 17h-46zM227 867l135 -72l141 72h17
l1 1v-1h-1l-142 -157l-1 1h-28l-1 -1l-139 157h18z" />
    <glyph glyph-name="dcaron" unicode="&#x10f;" horiz-adv-x="515" 
d="M48 191q0 60 17 110t48.5 85t75.5 54.5t98 19.5q17 0 32.5 -1t30.5 -3v190q0 7 -1 16q0 9 -0.5 19.5t-0.5 23.5v16l2 1h1l91 30h23v-702l3 -32v-18h-104q-3 8 -5 17q-3 8 -5 16t-3 16q-25 -27 -62 -43t-78 -16q-37 0 -67 14.5t-51.5 40.5t-33 63.5t-11.5 82.5zM162 229
q0 -64 35.5 -102.5t94.5 -38.5q36 0 58 14v236q-19 12 -34 22t-26 17q-12 9 -22 15q-48 0 -77 -44.5t-29 -118.5zM530 563l25 187h107h7q4 0 6 2l-128 -189h-17zM684 767v-3l-1 1z" />
    <glyph glyph-name="Emacron" unicode="&#x112;" horiz-adv-x="581" 
d="M68 605l-3 36v19h422v-83h-17l-58 4h-214v-201h139q32 3 64 3v-86h-23q-28 2 -58 2.5t-61 0.5h-62v-221h239l58 5h17l1 -84h-447v19l3 36v550zM395 835v-72h-266v72h266z" />
    <glyph glyph-name="emacron" unicode="&#x113;" horiz-adv-x="483" 
d="M164 240q8 -66 49.5 -104.5t107.5 -38.5q24 0 53.5 11.5t53.5 30.5h4v-13q-24 -62 -71 -99t-101 -37q-48 0 -86.5 15t-66.5 42.5t-43 66.5t-15 86q0 59 15 106.5t43 82t66.5 53t86.5 18.5q39 0 70.5 -15.5t54 -43t35 -67t12.5 -87.5l-51 -7h-217zM124 593v72h266v-72
h-266zM323 307q-9 42 -30 65t-50 23t-49 -23.5t-27 -64.5h156z" />
    <glyph glyph-name="Edot" unicode="&#x116;" horiz-adv-x="581" 
d="M68 605l-3 36v19h422v-83h-17l-58 4h-214v-201h139q32 3 64 3v-86h-23q-28 2 -58 2.5t-61 0.5h-62v-221h239l58 5h17l1 -84h-447v19l3 36v550zM187 805q0 36 22 58t58 22t58 -22t22 -58t-22 -58t-58 -22t-58 22t-22 58z" />
    <glyph glyph-name="edot" unicode="&#x117;" horiz-adv-x="483" 
d="M164 240q8 -66 49.5 -104.5t107.5 -38.5q24 0 53.5 11.5t53.5 30.5h4v-13q-24 -62 -71 -99t-101 -37q-48 0 -86.5 15t-66.5 42.5t-43 66.5t-15 86q0 59 15 106.5t43 82t66.5 53t86.5 18.5q39 0 70.5 -15.5t54 -43t35 -67t12.5 -87.5l-51 -7h-217zM182 663q0 36 22 58
t58 22t58 -22t22 -58t-22 -58t-58 -22t-58 22t-22 58zM243 395q-29 0 -49 -23.5t-27 -64.5h156q-9 42 -30 65t-50 23z" />
    <glyph glyph-name="Ecaron" unicode="&#x11a;" horiz-adv-x="581" 
d="M494 84h17l1 -84h-447v19l3 36v550l-3 36v19h422v-83h-17l-58 4h-214v-201h139q32 3 64 3v-86h-23q-28 2 -58 2.5t-61 0.5h-62v-221h239zM126 867l135 -72l141 72h17l1 1v-1h-1l-142 -157l-1 1h-28l-1 -1l-139 157h18z" />
    <glyph glyph-name="ecaron" unicode="&#x11b;" horiz-adv-x="483" 
d="M49 200q0 59 15 106.5t43 82t66.5 53t86.5 18.5q39 0 70.5 -15.5t54 -43t35 -67t12.5 -87.5l-51 -7h-217q8 -66 49.5 -104.5t107.5 -38.5q24 0 53.5 11.5t53.5 30.5h4v-13q-24 -62 -71 -99t-101 -37q-48 0 -86.5 15t-66.5 42.5t-43 66.5t-15 86zM116 710l136 -80l140 80
h18l-143 -175h-30l-139 175h18zM243 395q-29 0 -49 -23.5t-27 -64.5h156q-9 42 -30 65t-50 23z" />
    <glyph glyph-name="Gbreve" unicode="&#x11e;" horiz-adv-x="711" 
d="M642 540q-5 0 -8.5 -0.5t-7.5 -0.5l-1 1q-12 2 -27 3t-26 5l-2 -3q-29 24 -68.5 39t-77.5 15q-50 0 -90.5 -18t-69.5 -50t-45 -77.5t-16 -101.5q0 -62 17.5 -113t49 -87t76 -56t98.5 -20q47 0 85 16v143l-3 36v19h135v-19l-3 -36v-131q-21 -25 -50 -46t-62.5 -36
t-69.5 -23.5t-72 -8.5q-75 0 -137 23t-106 64.5t-68 100t-24 129.5q0 82 25.5 149t72 114.5t112 73.5t145.5 26q74 0 133 -12t82 -32zM260 868q14 -37 45.5 -52.5t94.5 -15.5t94.5 15.5t45.5 52.5h20q-30 -83 -67 -118.5t-93 -35.5t-93 35.5t-67 118.5h20z" />
    <glyph glyph-name="gbreve" unicode="&#x11f;" horiz-adv-x="554" 
d="M344 76q69 0 98.5 -34t29.5 -90q0 -43 -16.5 -78.5t-47 -60.5t-73.5 -38.5t-95 -13.5q-85 0 -136.5 31.5t-51.5 83.5q0 12 6 27.5t16.5 30.5t26 27.5t34.5 20.5q-34 10 -53.5 33t-19.5 55q0 28 23 53.5t63 42.5q-33 21 -51.5 55t-18.5 79q0 72 46 116t137 44
q65 0 112 -28q32 5 65 9t66 9v-77l-78 5q18 -33 18 -75q0 -75 -46.5 -120.5t-137.5 -45.5q-42 0 -77 12q-9 -2 -14.5 -11t-5.5 -21q0 -19 15 -30t40 -11h126zM368 -79q0 25 -18.5 40t-62.5 15h-104q-12 0 -19.5 -25t-7.5 -59q0 -41 27.5 -65.5t72.5 -24.5q51 0 81.5 32.5
t30.5 86.5zM427 711q-30 -92 -67 -131.5t-93 -39.5t-93 39.5t-67 131.5h20q14 -41 45.5 -58t94.5 -17t94.5 17t45.5 58h20zM252 404q-27 0 -41 -27t-14 -72q0 -50 22 -80t59 -30q24 0 36.5 28.5t12.5 75.5q0 48 -20.5 76.5t-54.5 28.5z" />
    <glyph glyph-name="Itilde" unicode="&#x128;" horiz-adv-x="274" 
d="M70 660h135v-19l-3 -36v-550l3 -36v-19h-135v19l3 36v550l-3 36v19zM-16 705q20 60 40.5 97t56.5 37q17 0 36 -9.5t38.5 -21t38.5 -21t35 -9.5q18 0 27 14.5t17 37.5h19q-20 -61 -40.5 -98.5t-56.5 -37.5q-16 0 -35 9.5t-38.5 21t-38.5 21t-36 9.5q-19 0 -27.5 -13.5
t-16.5 -36.5h-19z" />
    <glyph glyph-name="itilde" unicode="&#x129;" horiz-adv-x="226" 
d="M56 419v3h7l85 38h23v-410l2 -32v-18h-119v18l2 32v284q0 8 -1 19q0 9 -0.5 21t-0.5 27v17zM23 580q-19 0 -27.5 -13.5t-16.5 -36.5h-19q20 60 40.5 97t56.5 37q17 0 36 -9.5t38.5 -21t38.5 -21t35 -9.5q18 0 27 14.5t17 37.5h19q-20 -61 -40.5 -98.5t-56.5 -37.5
q-16 0 -35 9.5t-38.5 21t-38.5 21t-36 9.5z" />
    <glyph glyph-name="Imacron" unicode="&#x12a;" horiz-adv-x="274" 
d="M70 19l3 36v550l-3 36v19h135v-19l-3 -36v-550l3 -36v-19h-135v19zM271 835v-72h-266v72h266z" />
    <glyph glyph-name="imacron" unicode="&#x12b;" horiz-adv-x="226" 
d="M54 418l2 1v3h7l85 38h23v-410l2 -32v-18h-119v18l2 32v284q0 8 -1 19q0 9 -0.5 21t-0.5 27v17zM-24 593v72h266v-72h-266z" />
    <glyph glyph-name="Idotaccent" unicode="&#x130;" horiz-adv-x="274" 
d="M70 660h135v-19l-3 -36v-550l3 -36v-19h-135v19l3 36v550l-3 36v19zM138 725q-36 0 -58 22t-22 58t22 58t58 22t58 -22t22 -58t-22 -58t-58 -22z" />
    <glyph glyph-name="dotlessi" unicode="&#x131;" horiz-adv-x="226" 
d="M56 419v3h7l85 38h23v-410l2 -32v-18h-119v18l2 32v284q0 8 -1 19q0 9 -0.5 21t-0.5 27v17z" />
    <glyph glyph-name="Lacute" unicode="&#x139;" horiz-adv-x="565" 
d="M67 55v550l-3 36v19h136v-19l-3 -36v-526h218l62 6h18v-85h-431v19zM116 706l87 159h115q-5 -19 -11 -35q-6 -15 -13.5 -27.5t-16.5 -17.5l-144 -80h-17v1z" />
    <glyph glyph-name="lacute" unicode="&#x13a;" horiz-adv-x="207" 
d="M46 719v3h7l85 38h23v-710l2 -32v-18h-119v18l2 32v584q0 8 -1 19q0 9 -0.5 21t-0.5 27v17zM87 765l92 160h121q-5 -19 -12 -35q-6 -15 -14 -27.5t-18 -17.5l-151 -80h-18z" />
    <glyph glyph-name="Lcaron" unicode="&#x13d;" horiz-adv-x="565" 
d="M64 660h136v-19l-3 -36v-526h218l62 6h18v-85h-431v19l3 36v550l-3 36v19zM335 660h107h7q4 0 6 2l-128 -189h-17zM464 674l-1 1l1 2v-3z" />
    <glyph glyph-name="lcaron" unicode="&#x13e;" horiz-adv-x="207" 
d="M46 634q0 8 -1 19q0 9 -0.5 21t-0.5 27v17l2 1v3h7l85 38h23v-710l2 -32v-18h-119v18l2 32v584zM226 563l25 187h107h7q4 0 6 2l-128 -189h-17zM380 767v-3l-1 1z" />
    <glyph glyph-name="Nacute" unicode="&#x143;" horiz-adv-x="656" 
d="M64 605l-4 55h104l329 -401v346l-4 36v19h107v-19l-3 -36v-610h-50q-95 115 -189 228.5t-189 228.5v-397l4 -36v-19h-108v19l3 36v550zM338 705v1l87 159h115q-5 -19 -11 -35q-6 -15 -13.5 -27.5t-16.5 -17.5l-144 -80h-17z" />
    <glyph glyph-name="nacute" unicode="&#x144;" horiz-adv-x="473" 
d="M161 460q0 -12 1 -25q0 -12 0.5 -25t0.5 -26h2q34 35 68.5 55.5t70.5 20.5q57 0 92 -32t35 -85v-293l2 -32v-18h-120v18l3 32v227q0 37 -20.5 59.5t-54.5 22.5q-26 0 -44 -5t-30 -13v-291l3 -32v-18h-120v18l2 32v284q0 8 -1 19q0 9 -0.5 21t-0.5 27v17l88 42h23z
M240 530l87 177h115q-5 -21 -11 -38t-13.5 -30.5t-16.5 -19.5l-144 -89h-17z" />
    <glyph glyph-name="Ncaron" unicode="&#x147;" horiz-adv-x="656" 
d="M543 -5q-95 115 -189 228.5t-189 228.5v-397l4 -36v-19h-108v19l3 36v550l-4 55h104l329 -401v346l-4 36v19h107v-19l-3 -36v-610h-50zM339 795l141 72h16l1 1v-1h-1l-142 -157l-1 1h-28l-1 -1l-138 157h17z" />
    <glyph glyph-name="ncaron" unicode="&#x148;" horiz-adv-x="473" 
d="M433 18v-18h-120v18l3 32v227q0 37 -20.5 59.5t-54.5 22.5q-26 0 -44 -5t-30 -13v-291l3 -32v-18h-120v18l2 32v284q0 8 -1 19q0 9 -0.5 21t-0.5 27v17l88 42h23q0 -12 1 -25q0 -12 0.5 -25t0.5 -26h2q34 35 68.5 55.5t70.5 20.5q57 0 92 -32t35 -85v-293zM400 710
l-143 -175h-30l-139 175h18l136 -80l140 80h18z" />
    <glyph glyph-name="Omacron" unicode="&#x14c;" horiz-adv-x="817" 
d="M70 324q0 78 24.5 142t69 109t107 70t138.5 25t138.5 -24.5t106.5 -69.5t68.5 -108t24.5 -140q0 -76 -24.5 -138.5t-68.5 -106.5t-106.5 -68.5t-138.5 -24.5t-138.5 24t-107 68t-69 105.5t-24.5 136.5zM383 600q-39 0 -71.5 -16t-55.5 -45.5t-35.5 -71t-12.5 -92.5
q0 -70 16.5 -128t46.5 -99t72.5 -63.5t94.5 -22.5q39 0 70.5 15.5t54 43.5t35 68t12.5 88q0 73 -16.5 132.5t-46 102t-71.5 65.5t-93 23zM527 835v-72h-266v72h266z" />
    <glyph glyph-name="omacron" unicode="&#x14d;" horiz-adv-x="548" 
d="M274 -10q-50 0 -91.5 17t-71 47.5t-45.5 74t-16 96.5t14 96.5t42.5 74t70.5 47.5t97 17q50 0 91.5 -17t71 -47.5t45.5 -74t16 -96.5t-14 -96.5t-42.5 -74t-70 -47.5t-97.5 -17zM254 400q-36 0 -54 -48t-18 -127t30.5 -127t81.5 -48q36 0 54 48t18 127t-30.5 127t-81.5 48
zM141 593v72h266v-72h-266z" />
    <glyph glyph-name="Racute" unicode="&#x154;" horiz-adv-x="582" 
d="M62 17l3 36v550l-3 36v19h212q50 0 90.5 -13t69.5 -36.5t45 -56.5t16 -73q0 -30 -11 -55.5t-30 -47t-43.5 -38.5t-51.5 -28q29 -37 67 -88t72 -98t58 -82.5t24 -42.5l-160 -1q0 4 -9 18.5t-23.5 35.5t-33 46.5t-38.5 52.5q-46 61 -104 137h-17v-235l3 -36v-19h-136v19z
M211 368q23 0 48 7t46 20.5t35 32t14 40.5q0 51 -31 81t-82 30h-46v-211h16zM216 705v1l87 159h115q-5 -19 -11 -35q-6 -15 -13.5 -27.5t-16.5 -17.5l-144 -80h-17zM567 22q-1 1 -1.5 2t-1.5 2q1 -1 1.5 -2t1.5 -2z" />
    <glyph glyph-name="racute" unicode="&#x155;" horiz-adv-x="356" 
d="M161 460q0 -13 1 -27q0 -13 0.5 -27t1.5 -28h3v-6q31 40 57.5 64t47.5 24v-1q14 0 31.5 -2.5t26.5 -8.5q12 -8 19 -18.5t7 -20.5q0 -7 -11 -33t-29 -63h-7q-29 17 -51 25.5t-57 8.5q-13 0 -34 -24v-273l3 -32v-18h-120v18l2 32v284q0 8 -1 19q0 9 -0.5 21t-0.5 27v17
l88 42h23zM285 707h115q-5 -21 -11 -38t-13.5 -30.5t-16.5 -19.5l-144 -89h-17z" />
    <glyph glyph-name="Rcaron" unicode="&#x158;" horiz-adv-x="582" 
d="M198 -2h-136v19l3 36v550l-3 36v19h212q50 0 90.5 -13t69.5 -36.5t45 -56.5t16 -73q0 -30 -11 -55.5t-30 -47t-43.5 -38.5t-51.5 -28q29 -37 67 -88t72 -98t58 -82.5t24 -42.5l-160 -1q0 4 -9 18.5t-23.5 35.5t-33 46.5t-38.5 52.5q-46 61 -104 137h-17v-235l3 -36v-19z
M211 368q23 0 48 7t46 20.5t35 32t14 40.5q0 51 -31 81t-82 30h-46v-211h16zM91 867l136 -72l141 72h16l1 1v-1h-1l-142 -157l-1 1h-28l-1 -1l-138 157h17zM567 22q-1 1 -1.5 2t-1.5 2q1 -1 1.5 -2t1.5 -2z" />
    <glyph glyph-name="rcaron" unicode="&#x159;" horiz-adv-x="356" 
d="M52 334q0 8 -1 19q0 9 -0.5 21t-0.5 27v17l88 42h23q0 -13 1 -27q0 -13 0.5 -27t1.5 -28h3v-6q31 40 57.5 64t47.5 24v-1q14 0 31.5 -2.5t26.5 -8.5q12 -8 19 -18.5t7 -20.5q0 -7 -11 -33t-29 -63h-7q-29 17 -51 25.5t-57 8.5q-13 0 -34 -24v-273l3 -32v-18h-120v18l2 32
v284zM199 630l141 80h17l-143 -175h-30l-138 175h17z" />
    <glyph glyph-name="Sacute" unicode="&#x15a;" horiz-adv-x="546" 
d="M326 399q82 -42 123.5 -91.5t41.5 -115.5q0 -45 -15 -82.5t-42.5 -64t-66 -41t-85.5 -14.5q-74 0 -132.5 11.5t-81.5 31.5l-6 125q5 0 10 0.5t10 0.5q16 -13 29 -23.5t30 -23.5q32 -25 70.5 -39.5t70.5 -14.5q38 0 61.5 27.5t23.5 73.5q0 35 -33.5 67t-99.5 66
q-75 38 -113 84t-38 108q0 42 15 76.5t42 58.5t65 37.5t84 13.5q60 0 105.5 -11t62.5 -30l6 -104q-2 0 -5 -0.5t-5 -0.5q-12 2 -18.5 4.5t-10.5 4.5q-2 2 -8 6l-15 10q-22 24 -56.5 38t-68.5 14q-29 0 -47 -19t-18 -51q0 -40 29 -71.5t86 -60.5zM434 865q-5 -19 -11 -35
q-6 -15 -13.5 -27.5t-16.5 -17.5l-144 -80h-17v1l87 159h115z" />
    <glyph glyph-name="sacute" unicode="&#x15b;" horiz-adv-x="443" 
d="M217 -10q-44 0 -87 7.5t-70 20.5v74h14q3 -2 6 -3.5t6 -3.5q12 -7 27.5 -14.5t32 -14t33 -10.5t30.5 -4q26 0 44 12t18 37q0 36 -23 57.5t-69 34.5q-52 14 -78 47.5t-26 96.5q0 60 38 96.5t101 36.5q39 0 78.5 -9t65.5 -24v-74q-29 11 -58.5 27.5t-61.5 21.5q0 1 -8 1.5
t-9 0.5q-20 0 -32 -9.5t-12 -24.5q0 -35 20.5 -56t60.5 -32q57 -16 86 -52t29 -102q0 -63 -42.5 -100.5t-113.5 -37.5zM302 707h115q-5 -21 -11 -38t-13.5 -30.5t-16.5 -19.5l-144 -89h-17z" />
    <glyph glyph-name="Scedilla" unicode="&#x15e;" horiz-adv-x="546" 
d="M492 191q0 -82 -47 -135t-126 -64q-4 -10 -23 -49q39 -10 61.5 -35t22.5 -60q0 -40 -28.5 -64.5t-75.5 -24.5q-20 0 -43 12.5t-41 32.5v15q8 -9 25.5 -14.5t38.5 -5.5q17 0 27 7t10 19q0 11 -11 18.5t-28 9.5l-42 19q20 45 34.5 75.5t19.5 41.5q-69 2 -123 13.5t-75 30.5
l-6 125q5 0 10.5 0.5t10.5 0.5v-1q16 -13 29 -23.5t30 -23.5q32 -25 70.5 -39.5t70.5 -14.5q38 0 61.5 27.5t23.5 73.5q0 35 -33.5 67t-99.5 66q-75 38 -113 84t-38 108q0 42 15 76.5t42 58.5t65 37.5t84 13.5q60 0 105.5 -11t62.5 -30l6 -104q-7 0 -10.5 -0.5t-6.5 -0.5
q-5 0 -9 2t-13 7q-2 2 -8 6l-15 10q-22 24 -56.5 38t-68.5 14q-29 0 -47 -19t-18 -51q0 -40 29 -71.5t86 -60.5q82 -42 123.5 -91.5t41.5 -115.5z" />
    <glyph glyph-name="scedilla" unicode="&#x15f;" horiz-adv-x="443" 
d="M127 -180q8 -9 25.5 -14.5t38.5 -5.5q17 0 27 7t10 19q0 11 -11 18.5t-28 9.5l-42 19q20 45 34.5 75.5t19.5 41.5q-40 2 -78 9.5t-63 18.5v74h14q3 -2 6 -3.5t6 -3.5q12 -7 27.5 -14.5t32 -14t33 -10.5t30.5 -4q26 0 44 12t18 37q0 36 -23 57.5t-69 34.5q-52 14 -78 47.5
t-26 96.5q0 60 38 96.5t101 36.5q39 0 78.5 -9t65.5 -24q0 -19 1 -32t-1 -32q-12 7 -30 14t-35.5 12.5t-32.5 9.5t-22 5q0 1 -8 1.5t-9 0.5q-20 0 -32 -9.5t-12 -24.5q0 -35 20.5 -56t60.5 -32q57 -16 86 -52t29 -102q0 -54 -32 -90t-87 -46q-2 -5 -8 -17.5t-15 -32.5
q39 -10 61.5 -35t22.5 -60q0 -40 -28.5 -64.5t-75.5 -24.5q-20 0 -43 12.5t-41 32.5v15z" />
    <glyph glyph-name="Scaron" unicode="&#x160;" horiz-adv-x="546" 
d="M442 524l-9 4.5l-9 4.5q-2 2 -8 6l-15 10q-22 24 -56.5 38t-68.5 14q-29 0 -47 -19t-18 -51q0 -40 29 -71.5t86 -60.5q82 -42 123.5 -91.5t41.5 -115.5q0 -45 -15 -82.5t-42.5 -64t-66 -41t-85.5 -14.5q-74 0 -132.5 11.5t-81.5 31.5l-6 125q5 0 10 0.5t10 0.5
q16 -13 29 -23.5t30 -23.5q32 -25 70.5 -39.5t70.5 -14.5q38 0 61.5 27.5t23.5 73.5q0 35 -33.5 67t-99.5 66q-75 38 -113 84t-38 108q0 42 15 76.5t42 58.5t65 37.5t84 13.5q60 0 105.5 -11t62.5 -30l6 -104q-2 0 -5 -0.5t-5 -0.5h-11zM407 867h-1l-142 -157h-30l-139 157
h18l135 -72l141 72h17l1 1v-1z" />
    <glyph glyph-name="scaron" unicode="&#x161;" horiz-adv-x="443" 
d="M352 356q-12 7 -29 14.5t-33.5 14t-30.5 11.5t-21 6q0 1 -8 1.5t-9 0.5q-20 0 -32 -9.5t-12 -24.5q0 -35 20.5 -56t60.5 -32q57 -16 86 -52t29 -102q0 -63 -42.5 -100.5t-113.5 -37.5q-44 0 -87 7.5t-70 20.5v74h14q3 -2 6 -3.5t6 -3.5q12 -7 27.5 -14.5t32 -14t33 -10.5
t30.5 -4q26 0 44 12t18 37q0 36 -23 57.5t-69 34.5q-52 14 -78 47.5t-26 96.5q0 60 38 96.5t101 36.5q39 0 78.5 -9t65.5 -24v-64h-5zM374 710l-143 -175h-30l-138 175h17l136 -80l141 80h17z" />
    <glyph glyph-name="Tcaron" unicode="&#x164;" horiz-adv-x="684" 
d="M277 55v526h-152l-62 -5h-18v84h594v-84h-18l-62 5h-152v-526l4 -36v-19h-138v19zM342 795l141 72h16l1 1v-1h-1l-142 -157h-30l-138 157h17z" />
    <glyph glyph-name="tcaron" unicode="&#x165;" horiz-adv-x="393" 
d="M17 391l86 59l106 123h9v-123h132v-68h-132v-238q0 -24 20 -39t53 -15q29 0 47 1.5t20 4.5l4 -14q-20 -42 -56 -67t-77 -25q-57 0 -91.5 35.5t-34.5 94.5v262h-86v9zM309 750h119l-127 -187h-17z" />
    <glyph glyph-name="Utilde" unicode="&#x168;" horiz-adv-x="653" 
d="M187 257q0 -41 12.5 -75t35.5 -58t55 -37.5t71 -13.5q57 0 91 35.5t34 94.5v402l-4 36v19h107v-19l-3 -36v-371q0 -55 -19 -100t-53.5 -77t-83.5 -49.5t-108 -17.5t-108 17.5t-83.5 49.5t-53.5 77t-19 100v371l-3 36v19h135v-19l-3 -36v-348zM168 705q20 60 40.5 97
t56.5 37q17 0 36 -9.5t38.5 -21t38.5 -21t35 -9.5q18 0 27 14.5t17 37.5h19q-20 -61 -40.5 -98.5t-56.5 -37.5q-16 0 -35 9.5t-38.5 21t-38.5 21t-36 9.5q-19 0 -27.5 -13.5t-16.5 -36.5h-19z" />
    <glyph glyph-name="utilde" unicode="&#x169;" horiz-adv-x="435" 
d="M142 176q0 -37 20.5 -59t54.5 -22q23 0 42.5 3t32.5 9v293l-4 31v18h118v-400l3 -32v-18h-118v58q-36 -33 -72.5 -50t-67.5 -17q-56 0 -90 32t-34 85v293l-2 32v18h117v-274zM59 535q20 60 40.5 97t55.5 37q17 0 36 -9.5t38.5 -21t38.5 -21t36 -9.5t26 14.5t17 37.5h19
q-20 -62 -40.5 -99t-55.5 -37q-17 0 -36 9.5t-38.5 21t-38.5 21t-36 9.5q-18 0 -26.5 -13.5t-16.5 -36.5h-19z" />
    <glyph glyph-name="Umacron" unicode="&#x16a;" horiz-adv-x="653" 
d="M55 641v19h135v-19l-3 -36v-348q0 -41 12.5 -75t35.5 -58t55 -37.5t71 -13.5q57 0 91 35.5t34 94.5v402l-4 36v19h107v-19l-3 -36v-371q0 -55 -19 -100t-53.5 -77t-83.5 -49.5t-108 -17.5t-108 17.5t-83.5 49.5t-53.5 77t-19 100v371zM199 763v72h266v-72h-266z" />
    <glyph glyph-name="umacron" unicode="&#x16b;" horiz-adv-x="435" 
d="M25 450h117v-274q0 -37 20.5 -59t54.5 -22q23 0 42.5 3t32.5 9v293l-4 31v18h118v-400l3 -32v-18h-118v58q-36 -33 -72.5 -50t-67.5 -17q-56 0 -90 32t-34 85v293l-2 32v18zM80 665h266v-72h-266v72z" />
    <glyph glyph-name="Uring" unicode="&#x16e;" horiz-adv-x="653" 
d="M486 605l-4 36v19h107v-19l-3 -36v-371q0 -55 -19 -100t-53.5 -77t-83.5 -49.5t-108 -17.5t-108 17.5t-83.5 49.5t-53.5 77t-19 100v371l-3 36v19h135v-19l-3 -36v-348q0 -41 12.5 -75t35.5 -58t55 -37.5t71 -13.5q57 0 91 35.5t34 94.5v402zM236 799q0 40 24.5 64
t66.5 24t66.5 -23.5t24.5 -61.5q0 -19 -7.5 -35.5t-20 -29t-29 -20t-34.5 -7.5t-34.5 7t-29 19.5t-20 28.5t-7.5 34zM324 853q-8 0 -12.5 -12t-4.5 -32q0 -26 7.5 -45.5t18.5 -19.5q6 0 10 13.5t4 32.5q0 29 -6 46t-17 17z" />
    <glyph glyph-name="uring" unicode="&#x16f;" horiz-adv-x="435" 
d="M292 400l-4 31v18h118v-400l3 -32v-18h-118v58q-36 -33 -72.5 -50t-67.5 -17q-56 0 -90 32t-34 85v293l-2 32v18h117v-274q0 -37 20.5 -59t54.5 -22q23 0 42.5 3t32.5 9v293zM122 624q0 40 24.5 64t66.5 24q41 0 65.5 -23.5t24.5 -61.5t-26.5 -65t-63.5 -27
q-18 0 -34.5 7t-29 19.5t-20 28.5t-7.5 34zM209 678q-8 0 -12 -12t-4 -32q0 -26 7.5 -45.5t17.5 -19.5q6 0 10 13.5t4 32.5q0 29 -6 46t-17 17z" />
    <glyph glyph-name="Ydieresis" unicode="&#x178;" horiz-adv-x="672" 
d="M210 605q39 -53 78.5 -105.5t78.5 -106.5l137 212l25 35q2 2 5 10.5t3 9.5h100l-26 -40q-51 -76 -100 -152t-99 -152v-261l3 -36v-19h-135v19l3 36v256l-213 299q-3 3 -8.5 11.5t-12.5 17.5q-7 10 -15 22h139l5 -10q5 -9 6 -10.5t2.5 -4t6 -8.5t17.5 -23zM381 807
q0 32 20 52t52 20t51.5 -20t19.5 -52t-19.5 -52t-51.5 -20t-52 20t-20 52zM238 879q32 0 51.5 -20t19.5 -52t-19.5 -52t-51.5 -20t-52 20t-20 52t20 52t52 20z" />
    <glyph glyph-name="Zacute" unicode="&#x179;" horiz-adv-x="646" 
d="M84 0v36q79 137 156.5 272.5t155.5 272.5h-221l-62 -5h-18v84h446v-53q-76 -133 -151 -264t-151 -264h238l62 5h18v-84h-473zM318 705v1l87 159h115q-5 -19 -11 -35q-6 -15 -13.5 -27.5t-16.5 -17.5l-144 -80h-17z" />
    <glyph glyph-name="zacute" unicode="&#x17a;" horiz-adv-x="489" 
d="M67 26q48 90 95.5 179t95.5 180h-137l-33 -4h-16q2 17 3 34.5t3 34.5h329v-32q-48 -88 -94.5 -176t-94.5 -177h146l33 4h17v-69h-347v26zM327 707h115q-5 -21 -11 -38t-13.5 -30.5t-16.5 -19.5l-144 -89h-17z" />
    <glyph glyph-name="Zdot" unicode="&#x17b;" horiz-adv-x="646" 
d="M84 36q79 137 156.5 272.5t155.5 272.5h-221l-62 -5h-18v84h446v-53q-76 -133 -151 -264t-151 -264h238l62 5h18v-84h-473v36zM330 725q-36 0 -58 22t-22 58t22 58t58 22t58 -22t22 -58t-22 -58t-58 -22z" />
    <glyph glyph-name="zdot" unicode="&#x17c;" horiz-adv-x="489" 
d="M67 0v26q48 90 95.5 179t95.5 180h-137l-33 -4h-16q2 17 3 34.5t3 34.5h329v-32q-48 -88 -94.5 -176t-94.5 -177h146l33 4h17v-69h-347zM247 583q-36 0 -58 22t-22 58t22 58t58 22t58 -22t22 -58t-22 -58t-58 -22z" />
    <glyph glyph-name="Zcaron" unicode="&#x17d;" horiz-adv-x="646" 
d="M541 660v-53q-76 -133 -151 -264t-151 -264h238l62 5h18v-84h-473v36q79 137 156.5 272.5t155.5 272.5h-221l-62 -5h-18v84h446zM199 867l135 -72l141 72h17l1 1v-1h-1l-142 -157h-30l-139 157h18z" />
    <glyph glyph-name="zcaron" unicode="&#x17e;" horiz-adv-x="489" 
d="M67 26q48 90 95.5 179t95.5 180h-137l-33 -4h-16q2 17 3 34.5t3 34.5h329v-32q-48 -88 -94.5 -176t-94.5 -177h146l33 4h17v-69h-347v26zM88 710h18l136 -80l140 80h18l-143 -175h-30z" />
    <glyph glyph-name="oogonek" unicode="&#x1eb;" horiz-adv-x="754" 
d="M397 -9h-21q-69 0 -125.5 20.5t-96.5 58.5t-62 91t-22 117q0 67 22 121.5t62.5 93.5t97 60.5t125.5 21.5t125.5 -21t97 -60t62.5 -93.5t22 -120.5q0 -97 -47 -166t-129 -101q24 -12 50 -33t51 -41.5t47.5 -35.5t38.5 -15q26 0 47 3.5t30 8.5v-20q-27 -15 -70 -24.5
t-85 -9.5q-20 0 -46 15.5t-54.5 38t-59 47.5t-60.5 44zM195 324q0 -60 15 -109.5t42.5 -85t66 -54.5t85.5 -19q35 0 64 13t49.5 36.5t32 57t11.5 73.5q0 62 -14.5 113t-41.5 87.5t-65 56.5t-85 20q-36 0 -65.5 -13.5t-50.5 -38.5t-32.5 -60t-11.5 -77z" />
    <glyph glyph-name="G_sc" unicode="&#x262;" horiz-adv-x="649" 
d="M387 510q-44 0 -80.5 -15t-62.5 -42t-40 -65t-14 -85q0 -53 15.5 -97t43.5 -75t68 -48t88 -17q41 0 76 16v111l-3 36v19h122v-19l-3 -36l1 -100q-19 -23 -45.5 -42.5t-56 -33t-61.5 -21t-64 -7.5q-67 0 -122.5 20t-95 56t-61 86.5t-21.5 111.5q0 70 23 127.5t64.5 98
t100 63t129.5 22.5q65 0 117.5 -12.5t74.5 -32.5l3 -78q-18 0 -30.5 3t-30.5 7q-26 24 -64.5 36.5t-70.5 12.5z" />
    <glyph glyph-name="I_sc" unicode="&#x26a;" horiz-adv-x="261" 
d="M192 565v-19l-3 -36v-455l3 -36v-19h-122v19l3 36v455l-3 36v19h122z" />
    <glyph glyph-name="N_sc" unicode="&#x274;" horiz-adv-x="595" 
d="M62 0v19l3 36v455l-3 36l1 20h93l287 -336v281l-4 36v19h98v-19l-3 -36v-515h-43l-336 387v-328l4 -36v-19h-97z" />
    <glyph glyph-name="R_sc" unicode="&#x280;" horiz-adv-x="514" 
d="M64 565h182q41 0 75 -11t58 -31.5t37.5 -48.5t13.5 -63q0 -49 -33 -86t-77 -57q25 -33 58.5 -76.5t63.5 -84t50.5 -71t20.5 -36.5h-144q0 3 -7.5 15.5t-20.5 30.5t-29 40t-33 44l-90 117h-5v-192l3 -36v-19h-123v19l3 36v455l-3 36v19zM184 319q19 0 40 5.5t39 16
t29.5 26t11.5 34.5q0 42 -24 67.5t-63 25.5h-33v-175z" />
    <glyph glyph-name="Y_sc" unicode="&#x28f;" horiz-adv-x="610" 
d="M67 519q-11 15 -17.5 24t-10.5 14t-6 8h129q1 -1 5.5 -9t6.5 -10l161 -201l139 201l9 19h91l-2 -4l-6 -10l-2 -3v-1q-49 -68 -96 -136.5t-95 -137.5v-219l3 -36v-19h-123v19l3 36v215z" />
    <glyph glyph-name="B_sc" unicode="&#x299;" horiz-adv-x="525" 
d="M64 546v19h177q88 0 132.5 -36.5t44.5 -96.5q0 -36 -21.5 -65.5t-61.5 -49.5q70 -17 105 -54t35 -88q0 -39 -17 -71.5t-47.5 -55.5t-73.5 -35.5t-96 -12.5h-177v19l3 36v455zM183 260v-188h57q51 0 82 26t31 68t-26.5 68t-79.5 26h-64zM184 332q51 2 81.5 20.5t30.5 47.5
q0 42 -21.5 67.5t-63.5 25.5h-27v-161z" />
    <glyph glyph-name="H_sc" unicode="&#x29c;" horiz-adv-x="601" 
d="M418 327v183l-3 36v19h122v-19l-3 -36v-455l3 -36v-19h-122v19l3 36v200h-234v-200l3 -36v-19h-123v19l3 36v455l-3 36v19h123v-19l-3 -36v-183h234z" />
    <glyph glyph-name="L_sc" unicode="&#x29f;" horiz-adv-x="501" 
d="M67 55v455l-3 36v19h123v-19l-3 -36v-439h167l62 6h18v-77h-367v19z" />
    <glyph glyph-name="circumflex" unicode="&#x2c6;" 
d="M155 705h30l143 -175h-17l-141 80l-136 -80h-17z" />
    <glyph glyph-name="caron" unicode="&#x2c7;" 
d="M34 710l136 -80l141 80h17l-143 -175h-30l-138 175h17z" />
    <glyph glyph-name="firsttonechinese" unicode="&#x2c9;" 
d="M37 600h266v-72h-266v72z" />
    <glyph glyph-name="breve" unicode="&#x2d8;" 
d="M30 731q14 -41 45.5 -58t94.5 -17t94.5 17t45.5 58h20q-30 -92 -67 -131.5t-93 -39.5t-93 39.5t-67 131.5h20z" />
    <glyph glyph-name="dotaccent" unicode="&#x2d9;" 
d="M98 682q0 32 20 52t52 20t52 -20t20 -52t-20 -52t-52 -20t-52 20t-20 52z" />
    <glyph glyph-name="ring" unicode="&#x2da;" 
d="M170 530q-18 0 -34.5 7t-29 19.5t-20 28.5t-7.5 34q0 40 24.5 64t66.5 24t66.5 -23.5t24.5 -61.5q0 -19 -7.5 -35.5t-20 -29t-29 -20t-34.5 -7.5zM150 629q0 -26 7.5 -45.5t18.5 -19.5q6 0 10 13.5t4 32.5q0 29 -6 46t-17 17q-8 0 -12.5 -12t-4.5 -32z" />
    <glyph glyph-name="A_sc" unicode="&#x1d00;" horiz-adv-x="607" 
d="M33 0q60 143 119.5 285.5t119.5 285.5h56l243 -570h-125l-60 155h-204l-57 -156h-92zM355 227l-75 179q-20 -50 -38 -94.5t-34 -84.5h147z" />
    <glyph glyph-name="C_sc" unicode="&#x1d04;" horiz-adv-x="659" 
d="M70 263q0 70 22 127.5t62.5 98t97 63t125.5 22.5q62 0 112 -12.5t70 -32.5l3 -78q-5 0 -9 -0.5t-8 -0.5q-22 5 -43 15t-41.5 20t-41 17.5t-43.5 7.5q-42 0 -76.5 -15t-59 -42t-38 -65t-13.5 -85q0 -56 13 -101.5t36 -78t55.5 -50.5t72.5 -18q29 0 62 9.5t62 27.5l30 13
q11 3 21.5 6.5t23.5 3.5q2 0 4 -0.5t4 -0.5l-4 -77q-26 -22 -81.5 -35t-120.5 -13q-67 0 -121.5 20t-93.5 56t-60.5 86.5t-21.5 111.5z" />
    <glyph glyph-name="D_sc" unicode="&#x1d05;" horiz-adv-x="644" 
d="M67 55v455l-3 36v19h193q71 0 129.5 -16t100 -48.5t64.5 -80t23 -110.5q0 -74 -21 -131t-60 -96t-93.5 -60t-121.5 -23h-214v19zM184 71l92 -1q80 3 128.5 52t48.5 143q0 57 -16.5 99.5t-46.5 71.5t-72.5 43.5t-93.5 14.5h-40v-423z" />
    <glyph glyph-name="E_sc" unicode="&#x1d07;" horiz-adv-x="518" 
d="M69 55v455l-3 36v19h359v-75h-17l-58 4h-164v-167h89q32 3 64 3v-78h-23q-31 2 -64.5 2.5t-67.5 0.5v-184h189l58 5h17l2 -76h-384v19z" />
    <glyph glyph-name="J_sc" unicode="&#x1d0a;" horiz-adv-x="261" 
d="M-55 -140q0 2 2 13.5t4 24.5q3 16 7 35h6q10 -3 22 -5t22 -4q12 -1 24 -3q19 0 30 35.5t11 93.5v460l-3 36v19h122v-19l-3 -36v-276q0 -91 -14.5 -166.5t-40.5 -128.5t-63.5 -82.5t-82.5 -29.5q-20 0 -31.5 9t-11.5 24z" />
    <glyph glyph-name="K_sc" unicode="&#x1d0b;" horiz-adv-x="624" 
d="M405 547q2 2 7 10t5 9h123q-2 -2 -3 -4l-10 -10q-59 -57 -116 -114t-116 -114l294 -323h-153l-250 289zM188 566v-19l-3 -36v-455l3 -36v-19h-122v19l3 36v455l-3 36v19h122z" />
    <glyph glyph-name="M_sc" unicode="&#x1d0d;" horiz-adv-x="764" 
d="M81 565h126l182 -413l179 413h111v-45l21 -465l4 -36v-19h-114v19l1 30l-16 357l-184 -411h-58l-182 416l-9 -361l2 -31v-19h-83v19l4 36l17 456l-1 35v19z" />
    <glyph glyph-name="O_sc" unicode="&#x1d0f;" horiz-adv-x="754" 
d="M377 -10q-69 0 -125.5 20.5t-97 58.5t-62.5 91t-22 118q0 67 22 121.5t62.5 93.5t97 60.5t125.5 21.5t125.5 -21t97 -60t62.5 -93.5t22 -120.5q0 -65 -22 -118.5t-62.5 -91.5t-97 -59t-125.5 -21zM194 323q0 -60 15 -109.5t42.5 -85t66 -54.5t85.5 -19q35 0 64 13
t49.5 36.5t32 57t11.5 73.5q0 62 -14.5 113t-41.5 87.5t-65 56.5t-85 20q-36 0 -65.5 -13.5t-50.5 -38.5t-32.5 -60t-11.5 -77z" />
    <glyph glyph-name="P_sc" unicode="&#x1d18;" horiz-adv-x="525" 
d="M64 19l3 36v455l-3 36v19h192q45 0 81.5 -11.5t62.5 -32.5t40.5 -50.5t14.5 -65.5q0 -37 -16 -67.5t-45.5 -52t-71 -33.5t-91.5 -12h-47v-185l3 -36v-19h-123v19zM184 494v-183l72 1q33 0 53 22.5t20 60.5q0 45 -28 72t-75 27h-42z" />
    <glyph glyph-name="T_sc" unicode="&#x1d1b;" horiz-adv-x="621" 
d="M45 565h531v-76h-18l-62 5h-127v-439l4 -36v-19h-125v19l4 36v439h-127l-62 -5h-18v76z" />
    <glyph glyph-name="U_sc" unicode="&#x1d1c;" horiz-adv-x="594" 
d="M58 565h122v-19l-3 -36v-289q0 -71 41.5 -113.5t110.5 -42.5q49 0 78.5 29.5t29.5 77.5l-1 338l-1 5t-1.5 11.5t-1 12.5t-0.5 7v19h98v-19l-3 -36v-310q0 -47 -16.5 -86t-47.5 -66.5t-73.5 -42.5t-95.5 -15q-52 0 -95 15t-74 42.5t-47.5 66.5t-16.5 86v310l-3 36v19z" />
    <glyph glyph-name="V_sc" unicode="&#x1d20;" horiz-adv-x="598" 
d="M257 -5q-13 33 -29 74.5t-34 88t-36.5 94.5t-36.5 93q-42 107 -86 220h124l5 -17l142 -389l164 387q0 1 2 10q1 4 2 9h90l-6 -14q-63 -139 -123 -277.5t-122 -278.5h-56z" />
    <glyph glyph-name="W_sc" unicode="&#x1d21;" horiz-adv-x="817" 
d="M143 566v-9t1 -11l96 -356q40 96 80 190.5t79 191.5h51l141 -381l116 354q0 1 1 10t1 10h92q-1 -3 -1 -6q-1 -6 -2 -8l-11 -26q-46 -128 -91 -255.5t-90 -256.5l-6 -18h-47l-147 387q-44 -97 -87 -193.5t-86 -193.5h-48q-10 32 -22.5 74t-26 88t-27.5 94.5t-27 93.5
q-31 107 -64 221h125z" />
    <glyph glyph-name="Z_sc" unicode="&#x1d22;" horiz-adv-x="586" 
d="M86 32q66 116 131.5 231t131.5 231h-171l-62 -5h-18v76h383v-45q-65 -112 -128.5 -224t-127.5 -225h191l62 5h18v-76h-410v32z" />
    <glyph glyph-name="Etilde" unicode="&#x1ebc;" horiz-adv-x="581" 
d="M436 79l58 5h17l1 -84h-447v19l3 36v550l-3 36v19h422v-83h-17l-58 4h-214v-201h139q32 3 64 3v-86h-23q-28 2 -58 2.5t-61 0.5h-62v-221h239zM123 705q20 60 40.5 97t55.5 37q17 0 36 -9.5t38.5 -21t38.5 -21t36 -9.5t26 14.5t17 37.5h19q-20 -62 -40.5 -99t-55.5 -37
q-17 0 -36 9.5t-38.5 21t-38.5 21t-36 9.5q-18 0 -26.5 -13.5t-16.5 -36.5h-19z" />
    <glyph glyph-name="endash" unicode="&#x2013;" horiz-adv-x="500" 
d="M50 303h400v-72h-400v72z" />
    <glyph glyph-name="emdash" unicode="&#x2014;" horiz-adv-x="1000" 
d="M50 303h900v-72h-900v72z" />
    <glyph glyph-name="quoteleft" unicode="&#x2018;" horiz-adv-x="263" 
d="M47 621q0 57 45 92t119 37v-29q-40 -1 -64.5 -13t-24.5 -31q0 -23 14.5 -42.5t37.5 -27.5l46 -24v-15l-23 -59q-6 -15 -13.5 -21t-17.5 -6q-13 0 -35 8q-38 14 -61 50t-23 81z" />
    <glyph glyph-name="quoteright" unicode="&#x2019;" horiz-adv-x="263" 
d="M61 731q6 15 13.5 21t17.5 6q13 0 35 -8q38 -14 61 -50t23 -81q0 -57 -45 -92t-119 -37v29q40 1 64.5 13t24.5 31q0 23 -14.5 42.5t-37.5 27.5l-46 24v15z" />
    <glyph glyph-name="quotedblleft" unicode="&#x201c;" horiz-adv-x="472" 
d="M340 490q-38 14 -61 50t-23 81q0 57 45 93t119 36v-29q-40 0 -64.5 -12.5t-24.5 -31.5q0 -23 14.5 -42.5t37.5 -27.5l46 -24v-15l-23 -59q-6 -15 -13.5 -21t-17.5 -6q-13 0 -35 8zM47 621q0 57 45 93t119 36v-29q-40 0 -64.5 -12.5t-24.5 -31.5q0 -23 14.5 -42.5
t37.5 -27.5l46 -24v-15l-23 -59q-6 -15 -13.5 -21t-17.5 -6q-13 0 -35 8q-38 14 -61 50t-23 81z" />
    <glyph glyph-name="quotedblright" unicode="&#x201d;" horiz-adv-x="472" 
d="M247 657v15l23 59q6 15 13.5 21t17.5 6q13 0 35 -8q38 -14 61 -50t23 -81q0 -57 -45 -92t-119 -37v29q40 1 64.5 13t24.5 31q0 23 -14.5 42.5t-37.5 27.5zM38 672l23 59q6 15 13.5 21t17.5 6q13 0 35 -8q38 -14 61 -50t23 -81q0 -57 -45 -92t-119 -37v29q40 1 64.5 13
t24.5 31q0 23 -14.5 42.5t-37.5 27.5l-46 24v15z" />
    <glyph glyph-name="bullet" unicode="&#x2022;" horiz-adv-x="580" 
d="M130 288q0 72 44 116t116 44t116 -44t44 -116t-44 -116t-116 -44t-116 44t-44 116z" />
    <glyph glyph-name="ellipsis" unicode="&#x2026;" horiz-adv-x="730" 
d="M505 70q0 36 22 58t58 22t58 -22t22 -58t-22 -58t-58 -22t-58 22t-22 58zM365 -10q-36 0 -58 22t-22 58t22 58t58 22t58 -22t22 -58t-22 -58t-58 -22zM145 -10q-36 0 -58 22t-22 58t22 58t58 22t58 -22t22 -58t-22 -58t-58 -22z" />
    <glyph glyph-name="guilsinglleft" unicode="&#x2039;" horiz-adv-x="249" 
d="M213 425h16l-72 -177l72 -178h-16l-200 178z" />
    <glyph glyph-name="guilsinglright" unicode="&#x203a;" horiz-adv-x="261" 
d="M20 70l77 178l-77 177h16l205 -177l-205 -178h-16z" />
    <glyph glyph-name="Euro" unicode="&#x20ac;" horiz-adv-x="521" 
d="M99 442q26 106 91 166.5t159 60.5q45 0 83.5 -16.5t56.5 -43.5q12 -19 12 -31q0 -21 -9 -25q-15 -9 -29 -16q-13 -7 -25.5 -12t-21.5 -5h-7q-5 11 -15 26.5t-23 29.5t-27 24t-28 10q-35 0 -58.5 -45t-31.5 -123h149v-63h-153q0 -24 1 -47t3 -44h149v-63h-138
q17 -67 54.5 -105t100.5 -38q38 0 67.5 7t38.5 19l2 -1v-36q-29 -37 -77 -59.5t-99 -22.5q-108 0 -164 63.5t-70 171.5h-80v63h75q-2 48 3 92h-77v63h88z" />
    <glyph glyph-name="F_sc" unicode="&#xa730;" horiz-adv-x="483" 
d="M68 55v455l-3 36v19h349v-75h-17l-58 4h-154v-167h89q32 3 64 3v-78h-21q-31 2 -64.5 2.5t-67.5 0.5v-200l3 -36v-19h-123v19z" />
    <glyph glyph-name="S_sc" unicode="&#xa731;" horiz-adv-x="480" 
d="M249 -10q-62 0 -112 12t-70 32l-6 117q5 0 10.5 0.5t10.5 0.5q16 -16 35.5 -34t41 -33t44.5 -24.5t46 -9.5q29 0 46 23.5t17 61.5q0 28 -26.5 55t-79.5 57q-62 35 -93 75t-31 91q0 73 46.5 117t122.5 44q48 0 86 -11.5t52 -30.5l6 -96q-5 0 -10.5 -0.5t-10.5 -0.5
q-6 5 -9.5 7t-6.5 4.5t-7 5.5t-11 9q-15 20 -43.5 35.5t-56.5 15.5q-19 0 -30.5 -15.5t-11.5 -41.5q0 -32 23 -59t68 -53q67 -38 101 -81t34 -97q0 -80 -48 -128t-127 -48z" />
    <glyph glyph-name="X_sc" unicode="&#xf078;" horiz-adv-x="621" 
d="M427 12l-4 6q0 2 -1 3l-26 36q-31 43 -62 85.5t-62 85.5l-162 -208l-1 -3l-4 -6l-5 -10h-81q2 2 4 6q2 3 4.5 6.5t5.5 8.5q53 63 102.5 127t100.5 127l-193 265q0 2 -2 2q0 1 -2 3q-5 8 -9 15q-2 3 -4 5h140l5 -10l3 -6t3 -4l146 -195l158 195q0 1 6 10q2 5 5 10h75
q-48 -68 -102 -132.5t-106 -129.5l196 -263q9 -12 14.5 -19.5t9.5 -11.5q3 -6 5 -8h-152z" />
  </font>
</defs>
</svg>
